<svg id="background" xmlns="http://www.w3.org/2000/svg" xmlns:xlink="http://www.w3.org/1999/xlink" viewBox="0 0 1920 628"><defs><style>.cls-1{fill:none;}.cls-2{clip-path:url(#clip-path);}.cls-3{fill:#fadc69;}.cls-4{fill:#d44719;}.cls-5{fill:#d56d19;}.cls-10,.cls-11,.cls-12,.cls-6{fill:#b2581b;}.cls-6{opacity:0.43;}.cls-7{fill:url(#Degradado_sin_nombre_8);}.cls-34,.cls-8{fill:#ffb43b;}.cls-8{opacity:0.3;}.cls-9{fill:#e57428;}.cls-11{opacity:0.28;}.cls-12{opacity:0.65;}.cls-13,.cls-18,.cls-21,.cls-22,.cls-23,.cls-24,.cls-27,.cls-28{opacity:0.25;}.cls-13{fill:url(#Degradado_sin_nombre_8-2);}.cls-14{fill:#c6601c;}.cls-15,.cls-36{fill:#753014;}.cls-16{fill:#a5521b;}.cls-17,.cls-47{fill:#964915;}.cls-18{fill:#6b462d;}.cls-19{fill:#874315;}.cls-20{fill:#8c4515;}.cls-21{fill:url(#Degradado_sin_nombre_8-3);}.cls-22{fill:url(#Degradado_sin_nombre_8-4);}.cls-23{fill:url(#Degradado_sin_nombre_8-5);}.cls-24{fill:url(#Degradado_sin_nombre_8-6);}.cls-25,.cls-26,.cls-29,.cls-32{opacity:0.15;}.cls-25{fill:url(#Degradado_sin_nombre_8-7);}.cls-26{fill:url(#Degradado_sin_nombre_8-8);}.cls-27{fill:url(#Degradado_sin_nombre_8-9);}.cls-28{fill:url(#Degradado_sin_nombre_8-10);}.cls-29{fill:url(#Degradado_sin_nombre_8-11);}.cls-30{fill:url(#Degradado_sin_nombre_8-12);}.cls-31{fill:url(#Degradado_sin_nombre_8-13);}.cls-32{fill:url(#Degradado_sin_nombre_8-14);}.cls-33{fill:#5d1815;}.cls-35{fill:#eefffc;}.cls-36,.cls-47{fill-rule:evenodd;}.cls-37{fill:#b8c140;}.cls-38{fill:#6ea92e;}.cls-39{fill:#a8cd33;}.cls-40{fill:#d0d348;}.cls-41{fill:#c1c140;}.cls-42{fill:#d0d340;}.cls-43{fill:#979e32;}.cls-44{fill:#a1af3f;}.cls-45{fill:#b6bf3c;}.cls-46{fill:#ffd757;}</style><clipPath id="clip-path"><rect class="cls-1" width="1920" height="628"/></clipPath><linearGradient id="Degradado_sin_nombre_8" x1="1449.58" y1="284.37" x2="1499.21" y2="338.86" gradientUnits="userSpaceOnUse"><stop offset="0.03" stop-color="#fadc69"/><stop offset="1" stop-color="#fadc69" stop-opacity="0"/></linearGradient><linearGradient id="Degradado_sin_nombre_8-2" x1="1226.39" y1="187.23" x2="1238.25" y2="187.23" gradientTransform="translate(-16.68 -23.66) rotate(1.52)" xlink:href="#Degradado_sin_nombre_8"/><linearGradient id="Degradado_sin_nombre_8-3" x1="1198.86" y1="217.83" x2="1261.63" y2="217.83" gradientTransform="translate(-16.68 -23.66) rotate(1.52)" xlink:href="#Degradado_sin_nombre_8"/><linearGradient id="Degradado_sin_nombre_8-4" x1="1168.64" y1="216.41" x2="1229.65" y2="216.41" gradientTransform="translate(-16.68 -23.66) rotate(1.52)" xlink:href="#Degradado_sin_nombre_8"/><linearGradient id="Degradado_sin_nombre_8-5" x1="1121.61" y1="289.6" x2="1184.81" y2="289.6" gradientTransform="translate(-16.68 -23.66) rotate(1.52)" xlink:href="#Degradado_sin_nombre_8"/><linearGradient id="Degradado_sin_nombre_8-6" x1="1083.73" y1="245.35" x2="1102.21" y2="245.35" gradientTransform="translate(-16.68 -23.66) rotate(1.52)" xlink:href="#Degradado_sin_nombre_8"/><linearGradient id="Degradado_sin_nombre_8-7" x1="1084.4" y1="170.7" x2="1123.82" y2="170.7" gradientTransform="translate(-16.68 -23.66) rotate(1.52)" xlink:href="#Degradado_sin_nombre_8"/><linearGradient id="Degradado_sin_nombre_8-8" x1="1365.57" y1="185.96" x2="1373.31" y2="185.96" gradientTransform="translate(-16.68 -23.66) rotate(1.52)" xlink:href="#Degradado_sin_nombre_8"/><linearGradient id="Degradado_sin_nombre_8-9" x1="1104.51" y1="315.38" x2="1159.93" y2="315.38" gradientTransform="translate(-16.68 -23.66) rotate(1.52)" xlink:href="#Degradado_sin_nombre_8"/><linearGradient id="Degradado_sin_nombre_8-10" x1="1098.28" y1="336.24" x2="1151.7" y2="336.24" gradientTransform="translate(-16.68 -23.66) rotate(1.52)" xlink:href="#Degradado_sin_nombre_8"/><linearGradient id="Degradado_sin_nombre_8-11" x1="1390.17" y1="267.03" x2="1416.77" y2="267.03" gradientTransform="translate(-16.68 -23.66) rotate(1.52)" xlink:href="#Degradado_sin_nombre_8"/><linearGradient id="Degradado_sin_nombre_8-12" x1="1450.26" y1="402.47" x2="1556.41" y2="402.47" gradientTransform="translate(-16.68 -23.66) rotate(1.52)" xlink:href="#Degradado_sin_nombre_8"/><linearGradient id="Degradado_sin_nombre_8-13" x1="1546.86" y1="370.86" x2="1583.65" y2="409.96" gradientTransform="translate(-16.68 -23.66) rotate(1.52)" xlink:href="#Degradado_sin_nombre_8"/><linearGradient id="Degradado_sin_nombre_8-14" x1="1027.63" y1="401.76" x2="1048.72" y2="424.91" gradientTransform="translate(-16.68 -23.66) rotate(1.52)" xlink:href="#Degradado_sin_nombre_8"/></defs><g class="cls-2"><rect class="cls-3" x="-38.77" y="118.89" width="1975.46" height="452.22"/><polygon class="cls-3" points="1963.22 -74.54 -38.77 -100.27 -16.5 238.35 1952.09 322.32 1963.22 -74.54"/><circle class="cls-4" cx="1335.62" cy="259.91" r="120.35" transform="translate(207.41 1020.55) rotate(-45)"/><polygon class="cls-5" points="1495.75 233.89 1485.32 232.16 1478.36 238.24 1480.1 254.77 1473.14 259.99 1473.14 331.31 1465.31 335.65 1464.44 383.49 1457.48 386.97 1454.01 448.72 1475.75 504.38 1511.41 501.77 1532.28 454.81 1501.84 406.97 1504.45 315.65 1500.97 311.3 1502.71 271.29 1498.36 266.07 1497.49 250.42 1493.14 244.33 1495.75 233.89"/><polygon class="cls-6" points="1495.53 233.9 1485.19 232.16 1487.01 245.4 1493.02 244.33 1495.53 233.9"/><polygon class="cls-6" points="1497.37 250.42 1490.32 252.88 1492.57 265.95 1502.59 271.29 1498.29 266.36 1497.37 250.42"/><polygon class="cls-6" points="1504.33 315.65 1498.17 313.57 1493.72 408.95 1515.16 428.24 1501.72 406.97 1504.33 315.65"/><polygon class="cls-7" points="1480.73 235.63 1478.23 238.24 1479.97 254.77 1473.02 259.99 1473.02 331.31 1465.19 335.65 1464.32 383.49 1467.1 337.07 1474.47 331.94 1474.69 260.65 1482.07 254.17 1479.83 239.2 1480.73 235.63"/><path class="cls-8" d="M-15.77,242.46c12.92-4.22,1182.57,42.25,1182.57,42.25l-1191-82.14Z"/><polygon class="cls-5" points="1015.39 227.93 1025.83 226.19 1032.79 232.28 1031.05 248.8 1038 254.02 1038 325.34 1045.83 329.69 1046.7 377.52 1053.66 381 1057.14 442.75 1035.39 498.42 999.74 495.81 978.86 448.84 1009.3 401 1006.69 309.68 1010.17 305.33 1008.43 265.32 1012.78 260.11 1013.65 244.45 1018 238.36 1015.39 227.93"/><polygon class="cls-6" points="1016.04 229.19 1026.37 227.44 1024.56 240.69 1018.55 239.62 1016.04 229.19"/><polygon class="cls-6" points="1014.2 245.71 1021.24 248.17 1019 261.23 1008.98 266.58 1013.28 261.64 1014.2 245.71"/><polygon class="cls-6" points="1007.24 310.94 1013.4 308.85 1017.85 404.24 996.4 423.52 1009.85 402.26 1007.24 310.94"/><path class="cls-9" d="M1204.39,130.92l-.86,17.88,4.75.17q-2.05,51.89-4.12,103.75,16.14.56,32.28.66-.42-51.78-.82-103.54l4.16,0q-.21-9.06-.41-18.1C1239.37,131.94,1205.23,131.6,1204.39,130.92Z"/><path class="cls-9" d="M1225.82-63.33c-1.52-.49,8.54,142.19-51.15,185a787.52,787.52,0,0,0,92.94,1.92C1267.42,123.94,1220.55,108.29,1225.82-63.33Z"/><path class="cls-10" d="M1174.67,121.81q14.63,4.88,29.71,9.3,17.4.73,34.83.84,14.4-3.85,28.39-8.13C1236.62,124.67,1205.58,124,1174.67,121.81Z"/><path class="cls-11" d="M1219.83,158.83l-.06,3q8.1.18,16.21.23l0-3.6S1220.3,158.66,1219.83,158.83Z"/><path class="cls-12" d="M1224.7,213.56q-4.1-.06-8.21-.17l.3-12.92c0-.94,1.8-1.66,4-1.61h.16c2.17,0,3.92.83,3.91,1.77Q1224.77,207.1,1224.7,213.56Z"/><path class="cls-11" d="M1228.75,169.47q-8.64-.12-17.27-.38c0-1.13.07-2.27.11-3.4q8.58.26,17.17.37C1228.76,167.2,1228.75,168.33,1228.75,169.47Z"/><path class="cls-11" d="M1216.78,182.4c-3.37-.09-6.75-.19-10.12-.3,0-1.14.09-2.27.13-3.41q5,.18,10.07.3C1216.84,180.12,1216.81,181.26,1216.78,182.4Z"/><path class="cls-12" d="M1215.42,147.63l-4.6-.13.39-10.83c0-.58,1-1,2.24-1h.09c1.22,0,2.19.54,2.17,1.12Q1215.57,142.21,1215.42,147.63Z"/><path class="cls-12" d="M1223.92,147.86l-4.59-.09c.07-3.61.14-7.23.22-10.84,0-.58,1-1,2.23-1h.08c1.22,0,2.21.51,2.2,1.09C1224,140.64,1224,144.25,1223.92,147.86Z"/><path class="cls-12" d="M1232.9,148.1l-4.6-.06c0-3.61,0-7.22,0-10.84,0-.58,1-1,2.21-1h.09c1.22,0,2.21.49,2.21,1.08Q1232.88,142.68,1232.9,148.1Z"/><path class="cls-13" d="M1208.28,149q3.69,21.08,8,42.11-1.86,25.9-4,51.81l-3.35.26q.21-6.26.41-12.5l-6-.27Q1205.94,189.69,1208.28,149Z"/><path class="cls-10" d="M1313.32,181.08q6.87,53,13.73,106-44.73,2.88-89.64,2.61-.81-53.34-1.52-106.68C1235.93,183.86,1315.22,181,1313.32,181.08Z"/><path class="cls-14" d="M1130.49,196.58,1117.38,282c39.75,4,79.73,6.09,119.7,6.34l-.75-88q-6.82,0-13.64-.17-.07,5.1-.13,10.19-6.93-.12-13.85-.33.19-6.26.41-12.5-7.93-.24-15.86-.59l-.66,11.56q-8.07-.36-16.12-.83.51-6.24,1-12.47-8.46-.49-16.93-1.12-.63,5.76-1.24,11.53-6.32-.47-12.63-1,.76-6,1.52-12S1129.46,196.05,1130.49,196.58Z"/><path class="cls-14" d="M986.94,350.62l-13.11,85.45c39.75,4,79.72,6.09,119.7,6.34l-.75-88q-6.83,0-13.64-.17c-.05,3.4-.09,6.79-.13,10.19q-6.93-.12-13.86-.33l.42-12.5q-7.93-.24-15.86-.6l-.66,11.57q-8.07-.36-16.13-.83l1-12.48q-8.48-.5-16.93-1.11-.63,5.76-1.25,11.53-6.32-.47-12.62-1,.76-6,1.52-12C1004.7,346.72,985.91,350.1,986.94,350.62Z"/><path class="cls-14" d="M1516.15,360.71q7.1,42.74,14.18,85.48c-42.52,3.9-85.29,5.94-128.07,6.11q.33-44,.64-88,7.3,0,14.6-.14c.06,3.4.11,6.79.16,10.19q7.41-.12,14.82-.31-.23-6.25-.46-12.5,8.48-.22,17-.56.36,5.78.73,11.56,8.63-.35,17.25-.8l-1.11-12.47q9.06-.48,18.12-1.09l1.35,11.53c4.5-.3,9-.63,13.5-1l-1.65-12S1517.24,360.19,1516.15,360.71Z"/><path class="cls-15" d="M913.56,558.32Q946.46,488,976.45,417q31.72-2.13,62.68-5.58l5.07-23q13.32-.42,26.54-1.1-2.76-8.49-5.34-17,50.13-7.71,97.52-18.89,1.33,16.72,2.88,33.47,38.07,3.48,76.47,4.95,10,5.43,20.29,10.71,37.55,3.19,75.62,4.48,30.71.82,61.67.36,8.14,11.43,16.62,22.77,27.71,1.47,55.79,1.92,2.31-8.61,4.46-17.21c47.09,4.4,95.47,6.57,144.84,6.28q21.27,40.26,43.09,80.39,25.08-2.87,50.24-6.5,5.43,52.76,6.95,106.08,14.29,35,28.35,70c-331.92,85.37-692.73,81.91-1023.7-8.56q42.32-53.44,81.36-108Q861.09,557,913.56,558.32Z"/><path class="cls-10" d="M1072.14,206.38q-1.48,5.58-3,11.17l4.09.64q-6.82,33.56-13.48,67.13,11.26,4.83,22.76,9.47l14.4-73.06q4.18.53,8.37,1l2.16-11.74Q1089.78,209,1072.14,206.38Z"/><path class="cls-10" d="M1109.79,125.57c-.4-.18-6.85,62.35-47.67,77q29.75,4.74,59.78,7.91C1121.83,210.55,1093.68,200.06,1109.79,125.57Z"/><path class="cls-16" d="M1341.35,170.89c-.23,0,12.05,44.23-12.51,61q22.25-1.6,44.38-4C1373.2,227.87,1350.54,225,1341.35,170.89Z"/><path class="cls-10" d="M1085.9,262.06q7.11.92,14.23,1.74-1.05,5.76-2.09,11.52,3.81.45,7.62.87,1-6,2.06-12.09,9,1,18,1.85-.81,5.64-1.64,11.29,5.73.54,11.45,1,.76-5.92,1.54-11.86c4,.35,8,.67,12,1q-.69,6.08-1.37,12.15c7.64.58,10.71.77,10.7.77q.61-6.21,1.22-12.43,4.89.33,9.79.62-.5,5.82-1,11.62,6.87.42,13.77.75L1183,269q7.9.39,15.82.68l-.51,11.64,8.42.28q.2-6,.38-11.93,7.55.23,15.07.36-.36,31.08-.73,62.15L1220.9,381a1436.32,1436.32,0,0,1-152.37-10.83C1068.42,370.15,1087,261.78,1085.9,262.06Z"/><path class="cls-16" d="M1360.44,275q3.58-5.94,7-11.88l7.41-1q-3.12-15.54-6.23-31.07-16.07,1.69-32.18,3l5.28,34.51c.32,2.11.65,4.23,1,6.35-3,.23-6.07.46-9.11.67l-1-7.46q-6.39.45-12.78.84c.33,2.67.66,5.35,1,8q-9.12.56-18.26,1l-.87-8.86q-6.39.28-12.79.52c.24,3,.49,6.09.73,9.14q-4.18.15-8.39.27l-.57-8.32q-8.28.24-16.59.37.21,4.44.41,8.88-6.87.1-13.74.14c-.09-3.15-.17-6.29-.26-9.44q-7.15,0-14.32,0,.44,59.79.88,119.6a1450.87,1450.87,0,0,0,146.29-6.38C1383.18,383.75,1361.54,275.28,1360.44,275Z"/><path class="cls-10" d="M1236,135a824.84,824.84,0,0,0,96.83,44.65c-32.31,2.71-64.8,4-97.29,3.81C1235.54,183.47,1236,135.56,1236,135Z"/><path class="cls-10" d="M1217.88,280.22q9.3.15,18.59.15,4.62,50.73,10.4,101.43-26.65,0-53.3-1C1194.26,380.88,1215.84,279.2,1217.88,280.22Z"/><path class="cls-17" d="M1219.61,322.45q-.48,34.41-1,68.81a1435.05,1435.05,0,0,0,180.9,21.92q-11.05-48.07-21.74-96.19s-39.74,3.81-79.46,4.9C1258.63,323.42,1219,322.22,1219.61,322.45Z"/><path class="cls-14" d="M1083.16,218l-5.46-.76,1.59-7c.13-.57,1.42-.86,2.88-.66l.1,0c1.46.2,2.54.83,2.41,1.4Z"/><path class="cls-14" d="M1090.78,219l-5.46-.73c.5-2.33,1-4.66,1.51-7,.12-.57,1.41-.87,2.87-.68l.1,0c1.46.19,2.55.81,2.43,1.39C1091.75,214.28,1091.26,216.61,1090.78,219Z"/><path class="cls-14" d="M1098.4,219.92c-1.82-.22-3.64-.46-5.46-.69.47-2.34,1-4.67,1.43-7,.11-.57,1.39-.88,2.85-.7l.11,0c1.46.18,2.55.79,2.44,1.37C1099.32,215.25,1098.86,217.58,1098.4,219.92Z"/><path class="cls-14" d="M1062.12,202.54q5,1.94,10,3.84,17.63,2.6,35.34,4.63,7.23-.24,14.42-.56Q1091.89,207.27,1062.12,202.54Z"/><path class="cls-18" d="M1091,224.5c-.57-.07-1-.39-1-.61s.55-.34,1.13-.26,1,.31,1,.53S1091.59,224.58,1091,224.5Z"/><path class="cls-18" d="M1092.59,223.1c-.29,0-.5-.19-.48-.31s.28-.17.56-.13.51.16.48.27S1092.87,223.14,1092.59,223.1Z"/><path class="cls-14" d="M1084.8,234.65q-7.58-1-15.12-2.11c.27-1.15.53-2.29.8-3.44q7.51,1.1,15,2.11C1085.29,232.35,1085,233.5,1084.8,234.65Z"/><path class="cls-10" d="M1142.09,224.37q-7.44-.65-14.87-1.38c.18-1.16.36-2.32.53-3.47q7.39.73,14.79,1.37Z"/><path class="cls-10" d="M1198,235.85q-12.18-.47-24.34-1.18c.1-1.17.19-2.33.29-3.49q12.11.7,24.22,1.18C1198.08,233.52,1198,234.69,1198,235.85Z"/><path class="cls-17" d="M1129.44,306.33q-13.44-1.18-26.84-2.65c.19-1.15.39-2.31.58-3.46q13.35,1.45,26.72,2.63C1129.75,304,1129.59,305.17,1129.44,306.33Z"/><path class="cls-17" d="M1162,292.56q-21.26-1.14-42.49-2.55c.24-1.16.47-2.32.7-3.47q21.13,1.4,42.3,2.53Z"/><path class="cls-17" d="M1101.32,345.49q-14.13-1.49-28.23-3.25c.22-1.15.45-2.3.68-3.46q14,1.77,28.11,3.24C1101.7,343.17,1101.51,344.33,1101.32,345.49Z"/><path class="cls-10" d="M1178.89,254.67q-12.5-.79-25-1.86c.15-1.16.29-2.32.44-3.48q12.42,1,24.87,1.85C1179.11,252.35,1179,253.51,1178.89,254.67Z"/><path class="cls-10" d="M1245.72,248.78q-12.39,0-24.79-.22c0-1.16,0-2.33,0-3.5q12.33.24,24.67.22C1245.67,246.45,1245.7,247.62,1245.72,248.78Z"/><path class="cls-9" d="M1210.71,240.47q-12.26-.33-24.5-.93l.23-3.49q12.18.58,24.37.92C1210.78,238.14,1210.75,239.31,1210.71,240.47Z"/><path class="cls-14" d="M1147.71,313.23q-13.56-1-27.08-2.28c.17-1.15.34-2.31.5-3.47q13.47,1.27,26.95,2.26C1148,310.91,1147.83,312.07,1147.71,313.23Z"/><path class="cls-14" d="M1092.24,245.77c-2.88-.36-5.77-.73-8.64-1.12l.72-3.44q4.29.57,8.6,1.11C1092.69,243.47,1092.47,244.62,1092.24,245.77Z"/><path class="cls-17" d="M1328.84,231.85l7.62,2.08q16.11-1.26,32.18-3c1.54-1.05,3.06-2.1,4.58-3.16Q1351.1,230.26,1328.84,231.85Z"/><path class="cls-17" d="M1373,217.55c-.44-.1,19.62,61.12-17.85,85.21q34.08-2.86,67.91-7.53C1423,295.36,1388.11,292.52,1373,217.55Z"/><path class="cls-17" d="M1366.53,306.35q12.56,70.53,25.1,141,25,1.47,50.4,2.11-20.57-63.24-39.53-126.73,7.88-3.87,15.59-7.85-2.43-6.6-4.83-13.2-9.06,1.17-18.15,2.22c-.18-.83-.35-1.65-.53-2.47C1394.61,301.55,1368.94,306.21,1366.53,306.35Z"/><path class="cls-19" d="M1355.11,302.76q5.69,1.82,11.42,3.59,23.42-1.89,46.73-4.62,4.92-3.23,9.76-6.5Q1389.21,299.9,1355.11,302.76Z"/><path class="cls-17" d="M1313.37,181.28q-38.83,2.47-77.85,2.19l1.37,3.81q38.4.21,76.72-2.24Z"/><path class="cls-17" d="M1268.36,213.42c-5.45.12-10.9.19-16.36.24q-.3-9.61-.61-19.21c-.05-1.76,3.38-3.22,7.65-3.28h.31c4.28-.06,7.83,1.3,7.93,3.07Z"/><path class="cls-17" d="M1302.17,211.72q-8.16.42-16.33.72-.78-9.58-1.58-19.18c-.14-1.76,3.21-3.32,7.48-3.51h.31c4.27-.19,7.88,1.06,8.07,2.83Q1301.14,202.14,1302.17,211.72Z"/><path class="cls-17" d="M1070.74,387.34a1416.38,1416.38,0,0,0,159.5,34.07q4.42,12.78,9.12,25.53a1537.94,1537.94,0,0,0,156.85,13.15q26.26,9.57,53.68,18.24c-95.81,46.32-204.54,83.88-323.63,109.51a1728.3,1728.3,0,0,0,211.91,44c-121.7,32.16-253.41,52.31-391.58,57.85a2008.19,2008.19,0,0,0,603.61,5.22,1452.6,1452.6,0,0,0,168.6-97c-150.93,13.27-298.11,7.23-436-14.68q-3.59-8.61-7.07-17.23c130.07-35.79,246.48-86.15,345.88-146.78-49.37.29-97.75-1.88-144.84-6.28A1415.44,1415.44,0,0,1,1217.34,380a1437.76,1437.76,0,0,1-151.59-11.13Q1068.15,378.1,1070.74,387.34Z"/><path class="cls-17" d="M1109.2,374.09q9.85-4.2,19.51-8.56,14.3-.46,28.5-1.22,4.21-2.85,8.37-5.73,15,1.23,30.13,2.14,11.54,5.36,23.36,10.53-1.77,5.46-3.6,10.91Q1162.12,380.09,1109.2,374.09Z"/><path class="cls-17" d="M1217.34,380a1437.07,1437.07,0,0,0,184.84-5.12q-17.6,17.61-36.8,34.76A1367.76,1367.76,0,0,1,1217.34,380Z"/><path class="cls-20" d="M1367.19,405.34q-41.18-2.85-81.41-7.95l-.33-10.2c-.39-6.86,16.54-12.81,37.76-14h0c21.22-1.13,39.3,2.93,40.44,9.76Z"/><path class="cls-20" d="M1426.54,410.9A1406,1406,0,0,1,1220.9,381,1331.25,1331.25,0,0,0,1365,416.15Q1395.84,414.17,1426.54,410.9Z"/><path class="cls-20" d="M1281.71,360.37q-10.15.25-20.31.36-.44-11.4-.86-22.82c-.06-1.8,4.2-3.3,9.52-3.4h.39c5.32-.1,9.72,1.25,9.84,3.05Q1281,349,1281.71,360.37Z"/><path class="cls-20" d="M1332,357.93q-10.12.61-20.27,1.09-1.12-11.38-2.26-22.77c-.17-1.8,4-3.46,9.3-3.74l.38,0c5.31-.29,9.79.9,10,2.69Q1330.57,346.56,1332,357.93Z"/><path class="cls-20" d="M1381.56,355.35q-10.11,1-20.23,1.81-1.82-11.34-3.64-22.69c-.28-1.79,3.79-3.59,9.09-4.06l.38,0c5.3-.47,9.86.55,10.19,2.34Q1379.45,344,1381.56,355.35Z"/><path class="cls-21" d="M1176.48,207.66q29.19,19.76,61.78,38-.55-5.87-1.09-11.72-23.1-12.28-44.57-25.41Q1184.53,208.13,1176.48,207.66Z"/><path class="cls-22" d="M1146.32,204.62q28.28,20.5,60,39.55-.29-5.86-.56-11.73-22.51-12.88-43.36-26.56Q1154.35,205.31,1146.32,204.62Z"/><path class="cls-23" d="M1097.41,275.37q29.35,21.67,62.11,41.95c0-3.91,0-7.83,0-11.74q-27.81-14.07-53.67-29.25Z"/><path class="cls-24" d="M1073.27,218.19q2.81,8,5.82,16-5.85,24.07-11.77,48.14l-8,.37Q1066.25,250.43,1073.27,218.19Z"/><path class="cls-25" d="M1062.12,202.54c8.36-2,16.85-3.89,26-5.41q7.58-23.61,14.82-47.29C1102.68,149.7,1098.16,188.08,1062.12,202.54Z"/><path class="cls-26" d="M1343.37,203c2.55.81,5.11,1.6,7.68,2.39Q1349,199,1347,192.61l-2.85-1Q1343.76,197.27,1343.37,203Z"/><path class="cls-27" d="M1079.57,303.05q25.8,20.54,54.38,40-.53-5.71-1-11.44-27.18-15.27-52.33-31.57Z"/><path class="cls-28" d="M1072.13,348.61q19.38,12.64,39.9,24.75,6.95-13.11,13.58-26.27-24.66-17.7-47.16-36.2Q1075.27,329.75,1072.13,348.61Z"/><path class="cls-29" d="M1376.81,262q5.26,3.48,10.63,6.9,2.34,15.11,4.6,30.23-13.35-2.42-26.48-5.11C1365.7,294,1378.44,272.16,1376.81,262Z"/><path class="cls-30" d="M1426.54,410.9q49.57,9.72,101.81,16.07-1-5.55-2-11.11-25-1.07-49.64-3-27.26-1-54.11-3"/><path class="cls-31" d="M1543.54,417.71q1.88,4.59,3.74,9.16,6.84-.4,13.68-.87-4.74-3.92-9.42-7.85Z"/><path class="cls-32" d="M976.45,417q31.72-2.13,62.68-5.58c-.34,2.49-.67,5-1,7.48Q1007.44,418.59,976.45,417Z"/><path class="cls-33" d="M891.45,580.63q45.1-6.09,88.41-14.43c35,51.87,76.47,102.85,124.21,152.24q43.37-21.93,83.4-45.67,47.64,17.37,98,32.38,82.44-6.24,163-19.26-3.16,20.67-6.84,41.33c-283.2,23.3-571.88-12.93-834-106.55C708,614.9,803.1,601.05,891.45,580.63Z"/><path class="cls-33" d="M1126,587.38q10.79-45.54,20.49-91.2,13.13,31.08,28.26,62,8.52-15.75,16.57-31.59,9.86,12.83,20.24,25.54,10.77-7,21.22-14.15,13.49,7.38,27.35,14.55Q1195.55,572.46,1126,587.38Z"/><path class="cls-15" d="M1236.11,444.7q7.55-16.68,14.52-33.43,8.7,18.14,18.08,36.18,12.33-3,24.51-6.2,5.21,6.38,10.56,12.72,15.21-3.37,30.21-7.06,9.39,6.31,19,12.52-42.91,1.43-85.74.52Q1251.45,452.48,1236.11,444.7Z"/><path class="cls-17" d="M1276.68,215.57l2.28.36c0,.35-.08.73-.13,1.15s-.11.94-.19,1.56-.25,2-.51,4c-.24,1.77-.45,3.25-.65,4.45-.25,1.57-.49,2.93-.71,4.08a20.08,20.08,0,0,1-.7,2.67,7.43,7.43,0,0,1-1,1.91,6.84,6.84,0,0,1-1.48,1.46,5,5,0,0,1-2.05.84,7.22,7.22,0,0,1-2.49.06,7.14,7.14,0,0,1-2.67-1c-.8-.49-1.14-1-1-1.51s.44-.53,1.1-.43a16.42,16.42,0,0,0,1.94.21,4.85,4.85,0,0,0,3.45-1.27,4.13,4.13,0,0,0,1.17-1.81,29.57,29.57,0,0,0,.77-3.12l.07-.39c.1-.51.23-1.15.4-1.92,0-.2.11-.49.19-.89s.16-.82.26-1.29.18-.87.26-1.25l.29-1.31c.35-1.73.69-3.31,1-4.73S1276.74,215.23,1276.68,215.57Z"/><path class="cls-17" d="M1284.5,239l1.53,3.24q-5.22-1-8.13,0a4.31,4.31,0,0,0-2,1.22,1.48,1.48,0,0,0-.21,1.68,3.7,3.7,0,0,0,2.15,1.71,44.84,44.84,0,0,0,5,1.56q1.74.47,3,.9c.86.29,1.59.56,2.19.82a4.6,4.6,0,0,1,2.47,2.13,3.85,3.85,0,0,1-.32,4.19,8.18,8.18,0,0,1-4,2.79,9,9,0,0,1-3.23.51,6.37,6.37,0,0,1-2.55-.45,1.07,1.07,0,0,1-.62-.52.23.23,0,0,1,0-.21.53.53,0,0,1,.42-.5,4.17,4.17,0,0,1,1.16,0c.67,0,1.23,0,1.68,0a6.67,6.67,0,0,0,1.79-.39,5.79,5.79,0,0,0,2.41-1.56,2,2,0,0,0,.35-2.38,3.12,3.12,0,0,0-2-1.52c-1.09-.35-2.66-.75-4.72-1.2a25.66,25.66,0,0,1-5-1.53,4.65,4.65,0,0,1-2.56-2.35,3.5,3.5,0,0,1,.55-4.22,11.1,11.1,0,0,1,4.46-2.72,19.86,19.86,0,0,1,3-.76C1282.52,239.17,1283.56,239.05,1284.5,239Z"/><path class="cls-34" d="M1729.77,490.68l20.88-14.2,1.67-16.7,24.22-12.53L1792.41,464l21.71-10,5-20.88,22.55-11.69,9.19-8.35.84-27.56,16.7-30.07,19.21-3.34,13.36,1.67,13.37,2.5,12.53,153.68-183.75,21.72Z"/><path class="cls-8" d="M1160.75,443.81l5.15-27L1189.07,382l37.32-11.58,27,23.16,9,51.48,5.15,29.6a121.23,121.23,0,0,0,23.17,2.58c9,1.28,11.58,6.43,11.58,6.43,3.86,21.88,12.87,33.46,12.87,33.46l19.3-10.29c11.59,5.14,16.74,11.58,16.74,11.58a171.14,171.14,0,0,1,3.86,16.73c3.86,5.15,12.87,15.44,12.87,15.44L1256,563.5l-99.1-30.89Z"/><path class="cls-8" d="M1280.19,374.08l29.41-21.39,46.79,24.06L1347,407.5l16,25.4,21.39-5.34,20,21.39,24.07-4,21.39,6.68,20,5.35,30.5.09,36.35,26.65c6.68,16,4,26.74,4,26.74-1.34,14.7-267.39,0-267.39,0C1277.51,510.45,1278.85,375.42,1280.19,374.08Z"/><polygon class="cls-34" points="1012.44 449.4 1018.01 438.07 1029.83 471.49 1046.52 432.4 1051.39 470.35 1061.12 457.89 1063.91 473.19 1072.95 482.81 1077.12 467.52 1084.08 476.02 1095.2 439.2 1109.81 476.58 1121.63 472.05 1128.58 445.43 1138.32 470.35 1169.62 465.82 1175.88 472.05 1169.62 486.21 1173.79 494.14 1184.22 494.14 1209.95 508.87 1225.95 505.47 1257.24 413.15 1278.8 472.05 1303.14 412.02 1309.4 544.55 1095.9 570.03 1012.44 545.12 1012.44 449.4"/><path class="cls-35" d="M611.19,439c-12.39,1.43-27.85,17.81-32.9,18.39-5.57.65-9.59-13.49-15.55-12.8-.31,0-4.46,2.29-7.9,2.69-18.45,2.13-27.07-46.9-44-45-3.23.38-6.25,2.11-9.2,2.45-8,.93-12.28-13.31-20.24-12.39-40.57,4.68-3.83,39.74-37.86,43.67-4.56.52-9.42-.27-13.71.23-1.87.22,0-8-4.75-7.43-2.88.33-5.65,4.63-7.07,4.8,0,0-11.69-36.55-34.41-33.93-10.79,1.25-22.16,11.15-18.91,38.05,1.68,14,2.41,7.43-8.28,8.66-5.59.65-18.93-36.19-43.64-27C283,430.42,289.14,480,280.33,464.13c-4.58-7.06-5.85-17.54-12.09-22.89-6.05-3.85-11.57-3.21-17.63-7.07-3.33.38-8.22,9.11-7.57,14.54,2.73,14.86,9.13,29.3,16.09,40.64-8.28,3-13.88,12-12.06,27.15,1.56,12.94,11.59,41.83,20.12,40.85a14.82,14.82,0,0,0,6.33-2.88l336-28.15c19.11-8.77,40.35-18,36.2-52.35C642.44,447,619.71,438,611.19,439Z"/><path class="cls-35" d="M287.44,461.71c-12.39,1.43-27.85,17.82-32.9,18.4-5.57.64-9.59-13.5-15.55-12.81-.31,0-4.46,2.3-7.89,2.69-18.46,2.13-27.08-46.9-44-44.95-3.24.37-6.25,2.11-9.2,2.45-8,.92-12.29-13.31-20.25-12.39-40.57,4.68-3.83,39.73-37.86,43.66-4.56.53-9.42-.26-13.71.23-1.87.22,0-8-4.74-7.43-2.89.33-5.65,4.64-7.07,4.8,0,0-11.7-36.54-34.42-33.92C49.1,423.68,37.73,433.59,41,460.49c1.69,14,2.41,7.42-8.28,8.66-5.58.64-18.93-36.2-43.63-27-29.8,11.06-23.67,60.59-32.49,44.77C-48,479.82-49.26,469.34-55.5,464c-6.06-3.86-11.58-3.22-17.64-7.08-3.32.39-8.22,9.12-7.57,14.54,2.73,14.86,9.13,29.3,16.1,40.64-8.28,3-13.89,12-12.06,27.16,1.56,12.94,11.58,41.83,20.12,40.84a14.76,14.76,0,0,0,6.32-2.87l336-28.15c19.11-8.78,40.35-18,36.21-52.36C318.7,469.79,296,460.73,287.44,461.71Z"/><path class="cls-36" d="M1875,489.84s13.6-25.18,16.65-34.82,17.4-73.34,17.72-79.18-8.69-19.76-9.42-20.8-15.21-4.64-17.75-4.49-4.44.69-5.27.68-3.15-1.41-3.9-1.83-.17-4.41,0-4.81,1.65-.73,2.3-2.61-2-6.86-3.27-9.38-14.93-11.67-17.47-13.12-5.22-1.77-7.06-.16-5,4.87-7,5.2-13.35-2.74-14.55-3.26a22,22,0,0,1-3.55-2.31c-.88-.63-2.89.68-4.35,1.08s-3.72,3.39-4.5,3.7,3.41-3.89,3.75-4.21,2.76-1.76,3-2-6.8-6.26-7.94-6.78a44.84,44.84,0,0,0-6.76-1.81c-1.27-.18-4.62,1.51-6,1.92s5-3.33,5.91-3.61,4.45.66,5,.73-1.34-3.45-1.51-4.29,2.39,3.82,2.73,4.15a6.79,6.79,0,0,0,1.73.83c.3.1,8.9,6.63,10.24,7.31s11.11,2.92,11.82,3,2.13-1.16,2.43-1.59a20.32,20.32,0,0,0,.72-2.2,7,7,0,0,1,2-.88,22.81,22.81,0,0,1,3.49.66c1,.22,5.27-5.31,6.09-6.05s3.18-.36,5.56-.36,17,11.33,18.3,12.88,6,14.46,7.54,16.29,12.89,5.46,14.13,5.75,1.52-1.34,1.66-1.86-7.4-27.88-7.87-31.19,0-20.83-.22-23.09-21-17.22-24.33-19.71-22.69-7.49-28.31-9-7.1-5.22-10.23-7.8-6-1-8.15-.35-11.89,14.61-13,15.71-6,1.81-7.49,2.08-21.38-8.05-22.86-8.39-15.52,2.3-17.71,3-6.27,6.92-8,8.63,5-8.77,6.22-10.2,8.9-4.46,9.68-5a11.91,11.91,0,0,0,1.79-2.08,3.67,3.67,0,0,1,1.2-.46c.36-.1-8.45-5.66-9.55-6.66s-4.43-8.11-4.63-8.84,5.26,7.33,5.82,7.77a5.42,5.42,0,0,0,2.53.83c.35-.1-1.65-12.25-1.41-15s9.69-20.92,10.28-22-7.11,21.7-7.29,23.07,2.47,12.22,3,13.27,8.46,6.9,9.54,7.7,15.72,5.57,16.68,5.79,6.66.38,7.69,0,9.94-11.67,11-13.27,4-8.44,5-9.81,3.33-.77,4.57-.47,4,6.17,4.73,6.76,7.58,2.14,8.81,2.54,3.3,2.07,5.32,4,9.07,2.73,12.76,3.59a8.06,8.06,0,0,0,6.85-1.92c.44-.33,1.3-7,1.53-8.64s6.61-7.65,7.62-9a12.74,12.74,0,0,0,1.71-5.64c0-1.35-12.21-15.66-15.38-18.61s-8.13.08-10.63-.5-6.49-3.61-6.65-4.51-.46-6.63-.46-6.63,0-1-1.83-2.28-9-4.62-10.39-5.43-8.41-.66-9.64-.61-10.46,4.65-11.36,4.93a4,4,0,0,1-2.23-.18,5.78,5.78,0,0,0-2.06.29c-.92.28-.87-1-.31-1.42s15.66-7.33,16.57-7.92,11.21.27,12.46-.3,1.46-3.27,1.56-3.71-.55-1.6-.4-2.28.71-3.38.9-4,1-1.64,1.24-2.15-.51-4.09-1.39-6.08-5.14-4.34-9-6.11-5.43-4.34-6.79-5.77-.48-1.6-.35-1.68,5.27,4.48,6,4.9,11.74,4.7,12.56,5.32,1.8,5.41,2.4,8.14a6.6,6.6,0,0,1-.27,4.8c-.5,1.49,1.78,10.71,2.86,12.62a31.4,31.4,0,0,0,5.86,6.48c1.48,1.14,9.12,1.93,10.22,2.07a12.54,12.54,0,0,1,6.64,3.45c2.56,2.5,10.82,8.62,11.3,8.91s1.71-1,1.71-1a3.33,3.33,0,0,0,.12-1.26c-.09-.52-2.45-6.95-2.38-7.8s1.37-.67,1.94-.72,2.43-2.11,3.31-3.14-1.84-20.57-1.31-23.53,2.11-11.34,2.6-12.52,4.42-6.31,4.92-7.79,2.88-16.52,3.39-18.87,1.66.58,1.92,1.87-2.22,19-3,22.35-3.69,10.36-4.11,11.74-.16,24.85.5,26.73,1.49,1.95,3,2.17,17.86-7.55,20-9.64,4.78-7.15,6-8.84-2.07-14-2.28-15.81,2.16-11,2.47-11.87-1.09-5.68-1-6.28.69.1,1,.38a57.86,57.86,0,0,1,1.41,7.08c.08.85-.28,1-.57,1.65a51.67,51.67,0,0,0-1.24,8.43c.11,1.13,4.75,13.79,5.31,14.23s2.64.74,3.66,1a6.84,6.84,0,0,0,2.76-1.33v5.63c-1.6.95-3.34.73-4.2,1.21-1,.57-9.42,12-11.5,15s-18.62,7.75-21,8.91-2.78,4-3.49,5.11,3.15,11.82,3,15.73-6.56,10.43-8.25,13.24-1,4.45.16,9.15,4.91,3.85,8.73,4.73,3.9,1.84,5,3.22,1,3.79,1.3,5,4,.68,4.93,1.46,3,4.08,4.66,6.5,2.81,4.35,6,5.1,7.63-3.83,9.4-5.08,4.2,1,5.19,1.38v17.53c-1.4,1.82-4.77,4.09-6.34,6.08-2,2.5-2.09,7.4-3.21,12.56s3.71,16.88,4.34,17.83,2.54,1.45,4.42,1.89l.79.19V506.8h-2Z"/><path class="cls-36" d="M66,551.1S47,516,42.73,502.51,18.45,400.18,18,392s12.13-27.59,13.15-29,21.21-6.48,24.76-6.27,6.2,1,7.36.95,4.39-2,5.43-2.55.24-6.16,0-6.71-2.3-1-3.21-3.64,2.74-9.58,4.55-13.1,20.84-16.28,24.39-18.31,7.28-2.46,9.85-.22,7,6.8,9.82,7.26,18.63-3.82,20.3-4.55a31.46,31.46,0,0,0,5-3.22c1.22-.89,4,.95,6.07,1.51s5.19,4.73,6.28,5.16-4.76-5.43-5.23-5.88-3.86-2.45-4.14-2.77,9.49-8.75,11.09-9.46a63.27,63.27,0,0,1,9.43-2.54c1.77-.24,6.45,2.11,8.4,2.69s-7-4.65-8.25-5-6.21.92-7,1,1.87-4.82,2.11-6-3.33,5.33-3.81,5.79a9.26,9.26,0,0,1-2.41,1.16c-.43.14-12.42,9.25-14.29,10.2s-15.51,4.08-16.49,4.14-3-1.63-3.4-2.22a28,28,0,0,1-1-3.08,9.9,9.9,0,0,0-2.85-1.23A34.9,34.9,0,0,0,109,307c-1.35.31-7.35-7.4-8.49-8.43s-4.44-.51-7.77-.51-23.68,15.82-25.54,18-8.41,20.18-10.52,22.74-18,7.62-19.72,8-2.11-1.87-2.31-2.6,10.33-38.9,11-43.52,0-29.06.3-32.22,29.38-24,34-27.5,31.67-10.46,39.51-12.63,9.9-7.28,14.27-10.88,8.43-1.44,11.38-.5,16.58,20.39,18.08,21.93,8.37,2.53,10.45,2.9,29.84-11.23,31.89-11.71,21.67,3.21,24.72,4.22,8.76,9.66,11.11,12-6.91-12.24-8.68-14.23-12.42-6.23-13.5-7a16.27,16.27,0,0,1-2.51-2.9,5.11,5.11,0,0,0-1.67-.64c-.49-.15,11.79-7.9,13.32-9.29s6.19-11.33,6.47-12.34-7.34,10.22-8.13,10.83a7.36,7.36,0,0,1-3.53,1.17c-.49-.15,2.31-17.09,2-21s-13.51-29.19-14.34-30.71,9.92,30.27,10.17,32.19-3.44,17.05-4.2,18.52-11.8,9.62-13.31,10.74-21.93,7.77-23.28,8.08-9.29.53-10.73,0S155.51,213.5,154,211.27s-5.56-11.78-7-13.68-4.64-1.07-6.39-.67-5.61,8.61-6.59,9.45-10.58,3-12.29,3.54-4.62,2.88-7.44,5.6-12.64,3.8-17.79,5-9-2.21-9.57-2.67-1.8-9.81-2.13-12.06-9.22-10.66-10.64-12.57-2.3-6-2.38-7.87,17-21.85,21.47-26,11.34.11,14.82-.7,9.06-5,9.28-6.28.65-9.27.65-9.27-.06-1.44,2.56-3.17,12.57-6.45,14.48-7.58,11.74-.93,13.46-.85,14.6,6.49,15.86,6.88a5.69,5.69,0,0,0,3.1-.24,7.38,7.38,0,0,1,2.88.4c1.29.39,1.22-1.44.44-2s-21.86-10.22-23.12-11-15.65.37-17.4-.42-2-4.56-2.17-5.17.76-2.24.56-3.19-1-4.71-1.25-5.55-1.46-2.29-1.74-3,.72-5.72,1.94-8.5,7.17-6,12.62-8.52,7.58-6.06,9.48-8,.68-2.24.49-2.35-7.36,6.25-8.43,6.84S125.44,94.17,124.3,95s-2.52,7.55-3.35,11.35-.33,4.63.38,6.71-2.49,14.93-4,17.6-6.12,7.44-8.18,9-12.73,2.7-14.27,2.89a17.44,17.44,0,0,0-9.26,4.82c-3.57,3.49-15.1,12-15.76,12.43s-2.39-1.42-2.39-1.42a4.81,4.81,0,0,1-.18-1.77c.14-.71,3.42-9.69,3.33-10.87s-1.91-.93-2.71-1-3.39-2.95-4.62-4.38,2.57-28.71,1.84-32.84-3-15.82-3.64-17.47-6.16-8.8-6.86-10.87-4-23-4.73-26.32-2.33.79-2.68,2.6S50.33,82,51.36,86.72s5.14,14.45,5.73,16.38.23,34.68-.7,37.3-2.07,2.72-4.16,3S27.3,132.89,24.34,130,17.67,120,16,117.64s2.9-19.59,3.19-22.06S16.16,80.2,15.74,79s1.52-7.92,1.42-8.75-1,.13-1.34.52-1.86,8.69-2,9.87.39,1.42.79,2.31,1.89,10.18,1.73,11.76S9.75,114,9,114.59s-3.69,1-5.11,1.36c-.53.12-2.08-.71-3.86-1.85V122c2.24,1.31,4.66,1,5.87,1.68,1.42.79,13.14,16.81,16,21s26,10.81,29.33,12.43,3.89,5.63,4.88,7.12-4.4,16.5-4.21,22,9.16,14.55,11.51,18.47,1.36,6.22-.21,12.77S56.36,222.71,51,224s-5.45,2.57-7,4.48-1.34,5.3-1.81,7-5.53.94-6.88,2-4.16,5.69-6.51,9.08-3.91,6.06-8.43,7.11-10.65-5.34-13.11-7.09S1.38,247.88,0,248.44v24.47c2,2.53,6.66,5.71,8.86,8.48,2.75,3.49,2.91,10.33,4.48,17.53S8.15,322.48,7.28,323.8s-3.55,2-6.17,2.64L0,326.7V574.76H2.76Z"/><rect class="cls-37" x="1027.2" y="452.68" width="0.52" height="19.52"/><path class="cls-38" d="M697.79,488.44c-6.92-5.28-1.82-39.07,5.73-56.65,1.25-2.92,18,43.79,9.7,54.42C709.46,491.05,704.13,493.28,697.79,488.44Z"/><path class="cls-38" d="M690,490.76c-3.44-2.62-.91-19.4,2.84-28.14.63-1.45,8.93,21.75,4.82,27C695.77,492.06,693.12,493.17,690,490.76Z"/><path class="cls-38" d="M678.15,494.76c-5.11-2.74-1.82-19.47,3.46-28.1.86-1.43,13.63,22.07,7.75,27.24C686.67,496.25,682.83,497.27,678.15,494.76Z"/><path class="cls-38" d="M667.27,497.39c-4.63-2.24-3.49-19.24.16-28.34.59-1.51,13.81,20.71,9.3,26.41C674.68,498.06,671.5,499.44,667.27,497.39Z"/><path class="cls-38" d="M726.07,491.83c-4.63-2.25-3.49-19.24.16-28.35.6-1.51,13.81,20.71,9.31,26.41C733.49,492.49,730.31,493.88,726.07,491.83Z"/><path class="cls-38" d="M733.48,491.91c-3.49-3.71,4-19,10.92-26.11,1.14-1.18,5.07,24-1.32,27.69C740.17,495.16,736.66,495.31,733.48,491.91Z"/><path class="cls-38" d="M743.1,500.7c-3.29-4.23,5.52-23.16,13.08-32.21,1.25-1.5,3.46,28.56-3.35,33.43C749.73,504.13,746.13,504.56,743.1,500.7Z"/><path class="cls-38" d="M713.64,489.28c-3.62-5.31,3.49-33.68,10.2-47.89,1.11-2.36,5.83,39.54-.48,47.72C720.48,492.83,717,494.14,713.64,489.28Z"/><path class="cls-38" d="M675.33,490.7c-10.71.59-3.86-41.53.48-42.46S687.79,490,675.33,490.7Z"/><rect class="cls-38" x="688.71" y="476.26" width="1.43" height="19.52"/><rect class="cls-38" x="675.79" y="478.9" width="1.43" height="19.52"/><polygon class="cls-38" points="741.34 478.18 740.42 478.12 739.84 488.85 740.75 488.92 741.34 478.18"/><polygon class="cls-38" points="729.38 480.58 728.46 480.51 727.87 491.25 728.79 491.32 729.38 480.58"/><polygon class="cls-38" points="716.43 478.98 715.51 478.91 714.93 489.65 715.84 489.71 716.43 478.98"/><path class="cls-38" d="M688.83,484.86c-6.68,1.33-17-56.48,1.55-53.64,3.65.56,10.11,11.33,10.88,22.62C701.69,460.34,696.88,483.26,688.83,484.86Z"/><path class="cls-38" d="M734.81,479.73c-3.37-1.25-2-48.15,8.78-42.12,8.35,4.68,6.61,41.12,2.32,42.48C741.07,481.63,738.81,481.2,734.81,479.73Z"/><path class="cls-38" d="M723.47,483.18c-2.64-1-1.44-40,7-35,6.54,3.86,5.07,34.13,1.71,35.28C728.37,484.74,726.59,484.39,723.47,483.18Z"/><path class="cls-38" d="M711.31,481.45c-2.29-1.1-3.15-43.33,4.24-43.75s8.74,41.88,4.65,43.75S714.3,482.89,711.31,481.45Z"/><path class="cls-39" d="M671.86,422.48c-5.39-.69-6.49,22.08-6.68,28,.28-10.8,1.73-82-8.31-80.52-9.42,1.38-9.5,68.48-9.36,86.32-.25-14.26-1.85-58.51-11.84-54.5-11.9,4.77,3.1,61.25,3.1,61.25s-13.45-10.34-22.24-5.57c-7,3.8,3,18.66,7.42,24.57-1.09-.64-2.75-.92-5.35.09-6.2,2.38-3.62,11.93-1,21.47l65.67-23.07S678.07,423.27,671.86,422.48Z"/><path class="cls-17" d="M970,508.54c45-11.78,177.89-17.36,314.37-20.05,156.53-3.07,340.16,13.79,371,19.82,105.92,20.72-39.62,38.45-39.62,38.45Z"/><path class="cls-40" d="M743.28,514.84c35.61-11.9,190.65-47.09,230-47.87,75.86-1.49,127,61.26,127,61.26Z"/><path class="cls-41" d="M1003.05,491.77c0,12.13-13.64,23.18-36,31.46l133.18,5s-47.12-57.72-117.92-61.09C995.45,474.28,1003.05,482.72,1003.05,491.77Z"/><path class="cls-41" d="M746.7,513.74c-1.23.38-2.38.75-3.42,1.1l5.58.21C748.12,514.61,747.39,514.18,746.7,513.74Z"/><path class="cls-37" d="M531.09,470.76c-62.31,14.87-222.56,55-222.56,55S451,561.5,671,551.09s321.78-29.76,321.78-29.76S593.41,455.89,531.09,470.76Z"/><path class="cls-42" d="M531.09,470.76c-62.31,14.87-222.56,55-222.56,55S451,561.5,671,551.09c12.9-.62,25.35-1.26,37.43-1.93,13.2-8.78,20.58-18.48,20.58-28.7,0-16.17-18.42-31.09-49.42-43.08C610.72,469.82,552,465.78,531.09,470.76Z"/><polygon class="cls-43" points="-24.17 530.04 533.64 652.23 1007.04 515.62 -24.17 530.04"/><polygon class="cls-44" points="-30.32 534.65 533.64 652.23 976.18 521.04 -30.32 534.65"/><path class="cls-37" d="M661,601.1c-150.7-10.35-625.46-39.23-691.3-69.16l4.69,122.39L1024,592.22C1011.54,591.6,673.68,602,661,601.1Z"/><path class="cls-45" d="M517.73,521.24l2.15.27C622.37,535,715.28,641.85,764,667.58l336-41.2L997.24,521.87Z"/><polygon class="cls-43" points="1674.46 506.8 1631.3 544.98 1128.78 626.38 827.67 581.16 1001.72 515.67 1674.46 506.8"/><polygon class="cls-44" points="1622.05 533.93 1507.98 718.84 865 572.19 1002.04 518.33 1622.05 533.93"/><polygon class="cls-37" points="1957.88 458.44 1951.73 671.74 1565.53 650.5 1225.06 582.69 1957.88 458.44"/><polygon class="cls-43" points="1048.06 521.04 986.52 549.33 990.66 549.33 1056.34 521.63 1048.06 521.04"/><path class="cls-37" d="M551.63,470.23c-3.23-2.5-5.42-12.37-2-15.2s16.75-3.52,13.14,14.88Z"/><ellipse class="cls-43" cx="1021.6" cy="605.96" rx="738.45" ry="46.89"/><ellipse class="cls-46" cx="990.95" cy="609.57" rx="738.45" ry="46.89"/><path class="cls-14" d="M1807.05,503.8c.79-15.61-.71-28.29,6.68-58.67,0,0-10.51,30.2-13.12,43.19,0,0-1.26-33,3.74-55.93,0,0-12.84,42.6-13.2,61.72,0,0-8.11-37.71-.13-71.78,0,0-13,50.32-10.69,76.32,0,0-9.66-37.34-5.84-68,0,0-11.25,39.62-6,78,0,0-12.7-35.36-8-73.92,0,0-10.93,47.94-.13,99.2Z"/><rect class="cls-1" x="388.8" y="112.92" width="1202.26" height="510.96"/><path class="cls-8" d="M1408.19,121.81h178.14L1516.62,115l-5.81-13.56-10.64-9.68-14.53-1h0l-17.42-18.4-17.43-11.62a51.7,51.7,0,0,0-13.55,10.65l-2.91,25.17a28,28,0,0,1-21.3,1.94l-15.49,5.81L1385,114.06l-20.33,6.78Z"/><path class="cls-8" d="M675,220.74H853.1L783.4,214l-5.81-13.56-10.65-9.68-14.52-1h0L735,171.36l-17.43-11.62A51.7,51.7,0,0,0,704,170.39l-2.9,25.17a28,28,0,0,1-21.3,1.94l-15.49,5.81L651.73,213l-20.33,6.78Z"/><path class="cls-47" d="M1472.69,452.94a24.53,24.53,0,0,0-1.48-2.1l-1.19,7.51-.23-9.41c-1.66-2.23-3.42-4.54-3.42-4.54s-5.87,8.43-5.87,8.66c0,.07.28,3.09.69,7.47l-19.28,4.25c1.47-7.4,2.6-13.07,2.61-13.17,0-.27-5.76-11-5.76-11s-8.34,8.69-8.37,9c0,.11-.54,8.36-1.15,18l-.31.07-19.51-.32c.39-5.64.68-9.67.68-9.75,0-.26-7.14-9.51-7.14-9.51s-7.13,9.25-7.13,9.51c0,.08.27,4,.66,9.54l-7.31-.12.52,6.71,7.25-.05c.93,13.18,2.1,29.66,2.1,29.66h7.82s1.17-16.55,2.11-29.74l19.88-.13h0c-.78,12.27-1.56,24.67-1.56,24.67l3.87.57,3.88.57s3-15.1,5.63-28.29l21-4.42,2.59,27.87,3.34,0,3.34,0s.6-14.58,1.08-26.44l11.83,1.56.39-5.27-12-2.07C1472.54,456.83,1472.69,453,1472.69,452.94Z"/></g></svg>