<svg xmlns="http://www.w3.org/2000/svg" viewBox="0 0 1920 628">
  <defs>
    <style>
      .cls-1 {
        isolation: isolate;
      }

      .cls-2 {
        fill: #064435;
      }

      .cls-3 {
        fill: #cabd24;
      }

      .cls-4 {
        fill: #cc6914;
      }

      .cls-5 {
        fill: #ccccca;
      }

      .cls-6 {
        fill: #b3b1ac;
      }

      .cls-7 {
        fill: #1d1e1d;
      }

      .cls-8 {
        fill: #726f68;
      }

      .cls-9 {
        fill: #1c1d1d;
      }

      .cls-10 {
        fill: #097139;
      }

      .cls-11 {
        fill: #004a29;
      }

      .cls-12 {
        fill: #003c20;
      }

      .cls-13 {
        fill: #5ea832;
      }

      .cls-14 {
        fill: #11933d;
      }

      .cls-15 {
        fill: #a8cd33;
      }

      .cls-16 {
        fill: #6ea92e;
      }

      .cls-17 {
        fill: #20201f;
      }

      .cls-18 {
        fill: #9c9223;
      }

      .cls-19 {
        fill: #fff;
      }

      .cls-20 {
        fill: #9e5c5c;
        opacity: 0.6;
        mix-blend-mode: multiply;
      }

      .cls-21 {
        fill: #d23918;
      }

      .cls-22 {
        fill: #e04f22;
      }

      .cls-23 {
        fill: #c43d1d;
      }

      .cls-24 {
        fill: #d44719;
      }

      .cls-25 {
        fill: #e99728;
      }

      .cls-26 {
        fill: #e99729;
      }

      .cls-27 {
        fill: #2c6f93;
      }

      .cls-28 {
        fill: #a68859;
      }

      .cls-29 {
        fill: #847870;
      }

      .cls-30 {
        fill: #090606;
      }

      .cls-31 {
        fill: #0a0908;
      }

      .cls-32 {
        fill: #b39c7c;
      }

      .cls-33 {
        fill: #bcaea4;
      }

      .cls-34 {
        fill: #b49e7e;
      }

      .cls-35 {
        fill: #b29b7b;
      }

      .cls-36 {
        fill: #353535;
      }

      .cls-37 {
        fill: #c4411d;
      }

      .cls-38 {
        fill: #cfc9bf;
      }

      .cls-39 {
        fill: #c3ac8b;
      }

      .cls-40 {
        fill: #0a0909;
      }

      .cls-41 {
        fill: #e89727;
      }

      .cls-42 {
        fill: #1f1f1d;
      }
      @keyframes translatePerson {
        0% {transform: translateY(0px);}
        50% {transform: translateY(-20px);}
        100% {transform: translateY(0px);}
      }
      @keyframes translateWeapon {
        0% {transform: translate(0px, 0px) rotate(0deg);}
        50% {transform: translate(-20px, 0px) rotate(-15deg);}
        70% {transform: translate(50px, 0px) rotate(-5deg);}
        70% {transform: translate(0px, 0px) rotate(0deg);}
      }
      #rightPerson {
        animation: translatePerson 2s infinite;
      }
      #weapon {
        transform-box: fill-box;
        transform-origin: center center;
        animation: translateWeapon 2s infinite;
      }
    </style>
  </defs>
  <g class="cls-1">
    <g id="character">
      <path class="cls-2"
        d="M490.11,281.72a18.25,18.25,0,0,1-.91-6.12c.25-4.1,1.52-7.74,5.49-9.61s7.42-.53,10.54,1.84c4,3.06,6.53,7.32,8.48,11.9a72.42,72.42,0,0,1,3.63,12.69c.46,2,.81,4.06,1.22,6.09.32,1.6.32,1.72,1.9,1.85a10.33,10.33,0,0,1,5.88,2.75,22.94,22.94,0,0,1,7,11,48,48,0,0,1,1.12,4.92,3.16,3.16,0,0,0,1.39,2.18c3.58,2.52,5.46,6.14,6.4,10.32a63.06,63.06,0,0,1,1.41,12.33c0,.77,0,1.55,0,2.33a9.8,9.8,0,0,0,1,5.24c.76,1.33.48,1.91-.56,2.67-1.24.91-1.94,1-3.08-.08a3.38,3.38,0,0,0-3.43-1.06,3.68,3.68,0,0,1-1.55,0c-6.1-1.2-12.21-2.44-17.9-5.07-4-1.87-7.26-4.52-8.25-9.15a1.42,1.42,0,0,0-1-1.08c-1-.41-1.92-.79-2.88-1.19a22.71,22.71,0,0,1-9.58-7.06c-3.22-4.23-3.68-7.3-1.82-12.37a159,159,0,0,1-15-6.43,31.89,31.89,0,0,1-13.1-10.66,12,12,0,0,1-2.35-8c.45-5.32,3.59-8.52,8.35-10.16a17.32,17.32,0,0,1,14,.86c.8.41,4.9,4.23,6.08,3.82Z" />
      <path class="cls-3"
        d="M689.8,585.09c-.67,0-1.35-.08-2-.08-15.17-.2-30.34-.07-45.51.06a4.5,4.5,0,0,1-3.67-1.63,30,30,0,0,1-2.91-4.26C630.59,571,625.27,563,619.84,555c-3.4-5-6.23-10.29-9.33-15.44-1.11-1.84-2.15-3.73-3.32-5.53a3.56,3.56,0,0,1-.05-4.11c5.64-9.86,11.44-19.62,17.48-29.24,3.73-5.93,7.76-11.65,11.46-17.6a27.93,27.93,0,0,1,2.9-3.55,3.93,3.93,0,0,1,2.45-1.16c.61,0,1.22.13,1.83.13h40.17c3.81,0,7.62,0,11.42,0a3.35,3.35,0,0,1,2.83,1c1.36,1.64,3,3.06,4.18,4.84q7.6,11.07,15,22.28a236.34,236.34,0,0,1,12.67,21.77,5.52,5.52,0,0,1,.68,4.43,50.75,50.75,0,0,1-2.44,6.15c-2.76,5.5-6.15,10.61-9.43,15.8-4.49,7.1-9.3,14-14,21a79.41,79.41,0,0,1-6.14,8,3.34,3.34,0,0,1-2.74,1.24C693.61,585,691.7,585.06,689.8,585.09Z" />
      <g id="weapon">
        <path class="cls-4"
          d="M660.28,495c-3,1.37-5.81,3.22-8.69,4.87q-15,8.55-29.91,17.21-10.45,6-20.88,12.08l-29.73,17.12c-4.81,2.77-9.6,5.57-14.4,8.34q-14.94,8.63-29.9,17.23-10.53,6.09-21.06,12.18l-23.07,13.28c-4.86,2.8-9.71,5.63-14.57,8.44q-16.11,9.32-32.23,18.6c-2.26,1.3-3.81.86-5.26-1.38-.37-.58-.74-1.17-1.08-1.77-1.36-2.39-1-4,1.33-5.43,3.9-2.39,7.84-4.72,11.77-7.06,3.52-2.08,7.06-4.13,10.57-6.22L491,579.9q16.34-9.75,32.69-19.48l33.06-19.67,32-19,42-25q10.82-6.44,21.64-12.84c.24-.14.5-.24.74-.36-1.94,4.12,1.34,6.52,4.62,6.07a37.48,37.48,0,0,0,4.44-1,8.61,8.61,0,0,1,2.89-.61A83,83,0,0,0,660.28,495Z" />
        <path class="cls-5"
          d="M699.77,421c.66,0,1-.38,1.28-.87,2.39-3.55,4.77-7.11,7.24-10.6,1.39-2,2.88-3.89,4.43-5.74a5.4,5.4,0,0,1,5.51-1.95C725.1,403,732,404,738.91,405c5.94.86,11.88,1.74,17.84,2.47,7.33.9,14.66,1.82,21.9,3.36,1.83.39,3.6,1,5.38,1.51a5.37,5.37,0,0,1,3.37,2.89,10.88,10.88,0,0,0-3.14,1.57,19.14,19.14,0,0,1-3.68,2.33c-3.25,1.28-5.88,3.58-9,5.13-2.4,1.19-4.45,3.13-7.08,4-.46.15-.85.46-1.37.26h0c.26-.15.65-.3.4-.67s-.54-.07-.79.1c-3.65,1.29-7.23,2.76-10.93,3.87a107.49,107.49,0,0,0-24.55,10.85,17.65,17.65,0,0,0-4.76,0c-3.45.37-6.82,1.13-10.24,1.69a57.79,57.79,0,0,1-9.28,1c-1.41,0-1.43,0-1.45-1.49s0-2.9,0-4.36a133.06,133.06,0,0,0-.23-13.69A10,10,0,0,0,699.77,421Z" />
        <path class="cls-6"
          d="M763.15,428.55c.52.2.91-.11,1.37-.26,2.63-.9,4.68-2.84,7.08-4,3.1-1.55,5.73-3.85,9-5.13a19.14,19.14,0,0,0,3.68-2.33,10.88,10.88,0,0,1,3.14-1.57,3.71,3.71,0,0,1,.42,4.42c-3.52,7.59-6.73,15.32-9.89,23.07-4.33,10.64-8.21,21.44-12.14,32.22-1.21,3.31-2.57,6.57-3.79,9.88a1.7,1.7,0,0,1-1.44,1.23c-3.33.66-6.71,1-10.09,1.3s-6.75.57-10.13.85a2,2,0,0,1-1.41-.14c-.16-1-1-1.46-1.73-1.94-2-1.3-4.09-2.59-6.12-3.91-4.21-2.73-7.75-6.52-12.72-8.06-.91-.28-.89-.87-.45-1.62a52.79,52.79,0,0,1,4.05-6c3.41-4.35,7.1-8.48,10.2-13.08,2.13-1.28,4.25-2.56,6.39-3.82,3.4-2,6.64-4.23,9.94-6.38a9,9,0,0,0,1.47-1.14c2.52-2.45,5-4.9,7.51-7.39a29.63,29.63,0,0,0,3.77-4.09A8,8,0,0,1,763.15,428.55Z" />
        <path class="cls-7"
          d="M660.28,495a83,83,0,0,1,4.81-7,8.61,8.61,0,0,0-2.89.61,37.48,37.48,0,0,1-4.44,1c-3.28.45-6.56-2-4.62-6.07,1.43-1.57,3.38-2.4,5.09-3.57.82-.57,1.67-1.11,2.92-1.93l-2.64.13a34.61,34.61,0,0,1-10.74-.72,6.94,6.94,0,0,1-4-2.49c-2.07-2.72-1.33-5.76,1.75-7.2a43.36,43.36,0,0,1,5.73-1.83,10.43,10.43,0,0,0,2.7-.9c-1.25-.56-2.33-1-3.35-1.52a6.38,6.38,0,0,1-3.19-3.41,3.94,3.94,0,0,1,3.32-5.63,12.51,12.51,0,0,1,4.14.15c5.37,1.05,10.72,2.23,16.17,2.83a2.13,2.13,0,0,1,.57.23c-.38.3-.75.61-1.14.89-3.4,2.39-6.79,4.79-10.19,7.17-.51.36-1.11.65-.92,1.44a1.48,1.48,0,0,0,1.64,1.27,5.81,5.81,0,0,1,.83.07c5.79.54,11.58,1.16,17.38,1.62a15.92,15.92,0,0,0,8.68-1.64c6.28-3.37,12.4-7.06,18.57-10.64,5.27-3.06,10.48-6.24,15.8-9.21,2.42-1.34,4.69-3,7.32-3.92a18.1,18.1,0,0,1,2.45,4.1,6.41,6.41,0,0,1-2,1.46Q717.16,458,704.2,465.67c-3.63,2.16-7.31,4.23-10.93,6.4a14.78,14.78,0,0,0-3.72,2.61c-2.22,2.48-4.36,5-5.4,8.26a39.21,39.21,0,0,1-1.77,4c-1.5,3.35-3,6.71-4.5,10a1.62,1.62,0,0,0,.19,2.07c.65.69,1.23.33,1.85,0,2.42-1.2,4.79-2.49,7.26-3.57,2-.85,3.76-2.06,5.86-2.55a26.75,26.75,0,0,1-3.24,11.29c-2.51,4.56-6.33,4.58-9,.1-.53-.87-1-1.76-1.63-2.8-1,1.34-1.85,2.49-2.69,3.66a25.77,25.77,0,0,1-8.78,7.49,6.34,6.34,0,0,1-8.42-2.06A11.08,11.08,0,0,1,658,500.1C658.6,498.35,659.5,496.7,660.28,495Z" />
        <path class="cls-3"
          d="M693,492.92c-2.1.49-3.91,1.7-5.86,2.55-2.47,1.08-4.84,2.37-7.26,3.57-.62.32-1.2.68-1.85,0a1.62,1.62,0,0,1-.19-2.07c1.53-3.33,3-6.69,4.5-10a39.21,39.21,0,0,0,1.77-4c1-3.27,3.18-5.78,5.4-8.26a14.78,14.78,0,0,1,3.72-2.61c3.62-2.17,7.3-4.24,10.93-6.4q12.94-7.67,25.87-15.39a6.57,6.57,0,0,0,2-1.46c.82-.06.86.49.76,1.06-.2,1.19-.45,2.37-.68,3.55-3.1,4.6-6.79,8.73-10.2,13.08a52.79,52.79,0,0,0-4.05,6c-.44.75-.46,1.34.45,1.62,5,1.54,8.51,5.33,12.72,8.06,2,1.32,4.08,2.61,6.12,3.91.76.48,1.57.92,1.73,1.94a4.37,4.37,0,0,0-.92,1.35c-.93,2-1.89,2.57-4.11,2.18-1.91-.33-3.82-.53-5.73-.79a170.19,170.19,0,0,0-22.33-1.24C701.39,489.53,696.85,490.08,693,492.92Z" />
        <path class="cls-3"
          d="M729.62,444.72c-2.63.94-4.9,2.58-7.32,3.92-5.32,3-10.53,6.15-15.8,9.21-6.17,3.58-12.29,7.27-18.57,10.64a15.92,15.92,0,0,1-8.68,1.64c-5.8-.46-11.59-1.08-17.38-1.62a5.81,5.81,0,0,0-.83-.07,1.48,1.48,0,0,1-1.64-1.27c-.19-.79.41-1.08.92-1.44,3.4-2.38,6.79-4.78,10.19-7.17.39-.28.76-.59,1.14-.89a72.09,72.09,0,0,0,6.12-4.28,4.05,4.05,0,0,0,.9-.85c2.31-3.19,4.9-6.2,6.37-9.92,1.79-4.51,4.3-8.67,6.38-13a58.74,58.74,0,0,0,3.09-8.14c.87-2.85,2.76-3.21,4.9-.92a4.54,4.54,0,0,1,.36.5,10,10,0,0,1,1.59,4.87,133.06,133.06,0,0,1,.23,13.69c0,1.46,0,2.91,0,4.36s0,1.49,1.45,1.49a57.79,57.79,0,0,0,9.28-1c3.42-.56,6.79-1.32,10.24-1.69a17.65,17.65,0,0,1,4.76,0,14.4,14.4,0,0,1,2.35,1.19C730,444.2,729.86,444.45,729.62,444.72Z" />
        <path class="cls-8"
          d="M729.62,444.72c.24-.27.42-.52,0-.83a14.4,14.4,0,0,0-2.35-1.19,107.49,107.49,0,0,1,24.55-10.85c3.7-1.11,7.28-2.58,10.93-3.87l.39.57h0a8,8,0,0,0-1.91,2.06,29.63,29.63,0,0,1-3.77,4.09c-2.48,2.49-5,4.94-7.51,7.39a9,9,0,0,1-1.47,1.14c-3.3,2.15-6.54,4.4-9.94,6.38-2.14,1.26-4.26,2.54-6.39,3.82.23-1.18.48-2.36.68-3.55.1-.57.06-1.12-.76-1.06A18.52,18.52,0,0,0,729.62,444.72Z" />
      </g>
      <path class="cls-9"
        d="M587.92,571.81a18.74,18.74,0,0,1,13.18,5.05,45.35,45.35,0,0,1,13.36,19.7,133.15,133.15,0,0,1,6.74,32.61c.32,4.13.78,8.25.7,12.41a21.89,21.89,0,0,0,1.85,8.28c.88,2.3,1.73,4.6,2.5,6.94a11.51,11.51,0,0,1,.57,3,5.64,5.64,0,0,1-7,6.11,14.52,14.52,0,0,1-8.75-4.61,93.59,93.59,0,0,1-8.31-11.23c-3-4.8-6-9.69-8.87-14.6-4.14-7-7.24-14.6-10.58-22a117.56,117.56,0,0,0-6-12.17c-1.45-2.45-2.54-5.07-3.87-7.56a12.18,12.18,0,0,1-.15-10.9,20.52,20.52,0,0,1,5.86-7.65C582,572.88,585.1,571.53,587.92,571.81Z" />
      <path class="cls-9"
        d="M552.12,608.32c-.69,8.88-3.3,16.94-10.11,23.21-3,2.71-5.89,5.45-8.83,8.17a15,15,0,0,0-1.41,1.34c-3.67,4.52-7.72,8.73-10.89,13.65a48.18,48.18,0,0,0-3.52,6.47,24.63,24.63,0,0,1-1.88,3.82c-2.13,3.2-6.15,3.24-8.46.12a13.52,13.52,0,0,1-2.17-4.94,19.51,19.51,0,0,1,0-9.24c2.3-9.7,4.36-19.44,7-29.06A159.93,159.93,0,0,1,518.55,602c2.79-6.64,7.42-11.08,14.42-13,1.73-.47,3.3-1.42,5.19-1.46a8,8,0,0,1,6,2.16c1.75,1.72,3.43,3.53,5,5.4a10.51,10.51,0,0,1,2.09,5.38C551.69,603.08,551.86,605.67,552.12,608.32Z" />
      <path class="cls-10"
        d="M494.63,598.05a9.61,9.61,0,0,1-5.33-.53c-4.87-1.56-7.64-5.57-7.14-10.64a28,28,0,0,1,2.68-9.67c.45-.48.47-1.14.75-1.69l0-.25c-.94-2.24.37-4,1.34-5.76,1.28-2.28,1.09-3.35-1.74-3.87a29,29,0,0,1-8.74-2.91c-3.13-1.71-5.71-3.89-6.29-7.69-2.51-3.58-2.47-7.46-1.29-11.43a18.86,18.86,0,0,1,3.72-7.12c1-2.69-.93-4-2.54-5.46-5.22-4.8-6.45-8.92-4.24-14.06,1.34-3.11,3.95-5,6.53-7a27.48,27.48,0,0,1,3.95-2.42c2-1.06,5-1.15,5.88-3.37s-1.89-3.68-2.78-5.62a9.27,9.27,0,0,1-.29-6.77c1.09-3.8.79-4.27-3-4.8a21.87,21.87,0,0,1-8.78-2.8c-3-1.9-5.22-4.23-3.93-8.25.42-1.33.08-2.84.84-4.12.8-2.31,2.55-3.84,4.34-5.34l4.07-3.43c.11-.3-.42-.6-.7-1-3.93-5.2-3.76-11.59.59-16.33a14.26,14.26,0,0,1,12.54-4.86,21.72,21.72,0,0,1,5.87,1.39c0-1.16-.72-1.7-1.12-2.38a15.63,15.63,0,0,1-2.16-10.81,8.47,8.47,0,0,1,5.8-7.13,25.85,25.85,0,0,1,11.11-1.22,65.66,65.66,0,0,1,12.16,2.51c.5.14,1,.3,1.48.48a7.71,7.71,0,0,0,6.37-.25c6.46-3.1,13.53-3.31,20.46-4a183.83,183.83,0,0,1,48.79,2.23,140.94,140.94,0,0,1,47.61,17.18,283.56,283.56,0,0,1,25.85,16.45c1.87,1.38,3.46,3.32,5.52,4.2s4.58.68,6.86,1.1a22.78,22.78,0,0,1,12,6.74c2,1.94,2.5,4.47,2.93,7,1,2.83-.8,4.72-2.4,6.5-3,3.37-6.28,6.54-11.68,6.73,3.36,4.2,6.52,7.61,9.16,11.44,1.47,2.14,2.26,4.31,1.62,6.88a10.23,10.23,0,0,1-1.19,6.35,1.45,1.45,0,0,0,.29,2c.93.89,1.88,1.76,2.79,2.67a26.82,26.82,0,0,1,3.83,4.85c3,4.87,1.15,12.43-5.19,14.08-3.51,3.41-8,2.17-12.11,2.42a24.26,24.26,0,0,1-7.29-1c-1.13-.28-2.4-.76-3.32.19-2.07,2.13-3.18,5-5.26,7.16-2.67,2.8-.71,5.59.19,8.33a48.33,48.33,0,0,1,2,7.5c1.48,9.23-2.74,14.78-12,15.8-4.25.47-4.23.46-3.14,4.47.57,2.11,1.27,4.24.58,6.47a.34.34,0,0,1,0,.51c.17.59-.06,1.28.4,1.81,1.17,3.33,1.32,6.83,1.53,10.3a47.43,47.43,0,0,1-.41,10.84c-1.43,8.41-7.18,11.9-15.69,8.89a22.5,22.5,0,0,1-10-7.72c-.79-1-1.52-2.05-2.29-3.1-1,.37-.73,1.29-1,1.9a42,42,0,0,1-2.11,4.56,10.92,10.92,0,0,1-18.31,1,19.48,19.48,0,0,1-4.16-9.46c-1.37-1.84-1.74-4-2.12-6.19-.22-1.24-.57-2.38-2.16-2.14-9,1.37-13.34-3.88-16.25-11.25,0-.11-.19-.17-.61-.53-5.57,5.83-13.6,8.46-18.82,15.16-4.09,5.23-10.59,6.71-17.14,7-1.41.07-2.85-.32-4.21.32-1.28,2-3.24,3.29-5.16,4.57-7.18,4.79-17.17,1.73-19.85-5.7-2.86-2.64-2.27-6.16-2.13-9.4.23-5.12,2.12-10,3.14-14.69.27,1-.76,1.62-1.44,2.32a98,98,0,0,1-8.34,8.08C501.4,596.77,498.6,598.86,494.63,598.05Z" />
      <path class="cls-11"
        d="M651.42,587.32c-.09-.09-.25-.17-.26-.28a59.6,59.6,0,0,0-2.76-10.41c-.32-.86.27-1.48,1.32-1.28a22.79,22.79,0,0,0,5.78-.14,11.1,11.1,0,0,0,4.42-1.38,9.35,9.35,0,0,0,5-7c.76-4,0-7.7-1.17-11.42-.69-2.23-1.5-4.41-2.3-6.6a3.38,3.38,0,0,1,.79-3.89,29.83,29.83,0,0,0,5.33-7.57c1-2,1.89-2.18,4.17-1.37A25.8,25.8,0,0,0,682,537.37a8.84,8.84,0,0,1,1.53-.12,18.29,18.29,0,0,0,8.28-1.26c-.1.45-.81.81-.27,1.35a51.54,51.54,0,0,1,5.17,5.78,27,27,0,0,1,3.9,7.14c2.3,6.54-.67,12-7.46,13.61a24.09,24.09,0,0,1-6.17.56,87.64,87.64,0,0,1-11.49-1.51c-.54.72-.11,1.28.11,1.86q1.77,4.53,3.52,9.05a14.87,14.87,0,0,1,1,5.31,10.11,10.11,0,0,1-4.95,9.12,15.21,15.21,0,0,1-5.41,2.08,24.81,24.81,0,0,1-14.81-1.7C653.84,588.13,652.86,587.08,651.42,587.32Z" />
      <path class="cls-11"
        d="M538,609.27a2.08,2.08,0,0,1,2.44-1.45A23.42,23.42,0,0,0,553.88,605a17.22,17.22,0,0,0,5.75-4.47c.24-.3.57-.54.79-.85,2.5-3.6,5.94-5.95,9.81-7.9a23.07,23.07,0,0,0,6.67-5.23c.6-.67,1.1-1.45,2.24-1.56a5.07,5.07,0,0,1,.6,1.32c.5,3.51,2.69,6.07,4.79,8.7a7.58,7.58,0,0,0,4.7,2.46c2.14.42,4.3.78,6.48-.13,1.24-.52,2.23.07,2.26,1.24a31.9,31.9,0,0,0,1.46,7.18,3.82,3.82,0,0,1-.09,1.15c-.77.22-.85.86-.9,1.51-.2,2.58-.34,5.17-.62,7.74a30.64,30.64,0,0,1-.87,5,8.53,8.53,0,0,1-8.38,6.25A13.59,13.59,0,0,1,578,622.4a21.19,21.19,0,0,1-4.43-8.11c-.76-2.47-1.29-5-1.93-7.54-.89,0-1.08.8-1.46,1.4a60.67,60.67,0,0,1-6.23,8.4,19.36,19.36,0,0,1-16.27,6.66,18,18,0,0,1-2.31-.27c-5.19-1.07-7.7-4.54-7.12-9.81.11-1,.3-2,.42-3.07C538.74,609.62,538.4,609.41,538,609.27Z" />
      <path class="cls-11"
        d="M464.23,471.82c-.2,1.93-.35,3.86-.62,5.78a3.73,3.73,0,0,0,1.32,3.45,16.25,16.25,0,0,0,9.53,4.69c1.54.17,3.08.35,4.62.6,1.8.29,2.07.71,1.88,2.64a11.22,11.22,0,0,1-.92,3.34,6.45,6.45,0,0,0,.94,6.92c1,1.33,2.07,2.66,3,4,.53.73.31,1.39-.39,2a8.11,8.11,0,0,1-2.76,1.37,38,38,0,0,0-10.64,6.2,11.91,11.91,0,0,0-4.42,9.86,6.47,6.47,0,0,0,1.34,3.58,25.51,25.51,0,0,0,6,6c1.58,1.15,1.6,1.47.53,3.16a7.23,7.23,0,0,1-1.08,1.06c-.86-.73-1.71-.12-2.54.06a21,21,0,0,1-12.2-1.13c-4.1-1.59-5.77-4.49-5.12-8.88A22.09,22.09,0,0,1,459,514.27c3-3.08,5.29-6.69,8.06-9.93-.69-1.08-1.46-.29-2-.14a27.64,27.64,0,0,1-11.94.06,12.79,12.79,0,0,1-4.36-1.61,6,6,0,0,1-3.11-6.2,14.13,14.13,0,0,1,2.31-6.12,24.29,24.29,0,0,1,5.47-6c1.53-1.2,3.13-2.3,4.76-3.36,1.4-.92,3.13-1.48,4.27-2.64s.27-3,.77-4.48C463.45,473.11,463.53,472.31,464.23,471.82Z" />
      <path class="cls-10"
        d="M691.3,506a1.88,1.88,0,0,1-.47-1.42,7.69,7.69,0,0,0-1.7-4.62,72.37,72.37,0,0,0-8.84-10.68,5.58,5.58,0,0,1-1.07-1.58.62.62,0,0,1,.44-.89,8.39,8.39,0,0,1,1.51-.12,10.66,10.66,0,0,0,7.49-3.5,8.72,8.72,0,0,1,1.29-1.41c2.61-1.79,3.88-4.39,4.65-7.33a22.18,22.18,0,0,1,9.11,7,14.08,14.08,0,0,1,3,7.07c.55,4.82-.87,8.94-4.78,12a26.11,26.11,0,0,1-7.14,3.85C693.6,504.9,692.21,504.93,691.3,506Z" />
      <path class="cls-12"
        d="M470.2,555a3.76,3.76,0,0,1,.76.84c2.07,4.31,5.76,6.4,10.18,7.59a42.9,42.9,0,0,0,7.51,1.76c1,.09,1.31.75.86,1.64-.93,1.84-1.9,3.66-2.79,5.52-.44.92-.73,1.92-1.09,2.88-1.08-.67-2.24-.36-3.38-.28a16.55,16.55,0,0,1-8.24-1.61c-6-2.78-8-8.51-5-14.06a14.6,14.6,0,0,1,1-1.68C470.61,556.79,470.23,555.91,470.2,555Z" />
      <path class="cls-10"
        d="M494.63,598.05c.34-.18.72-.58,1-.52,2.32.49,3.88-.82,5.6-2,4.35-3.1,8-7,11.62-10.8a13.42,13.42,0,0,1,1.4-1.32.84.84,0,0,1,.71-.06.72.72,0,0,1,.24.63c-1.49,2.93-1.45,6.25-2.42,9.33a23.54,23.54,0,0,0,.24,14.88c-2.52-.47-5.09-.6-7.52-1.55-3.23-1.27-6-3.12-7.38-6.36C497.36,598.39,496.25,598,494.63,598.05Z" />
      <path class="cls-10" d="M651.81,589.64a1.42,1.42,0,0,1-.4-1.81A1.73,1.73,0,0,1,651.81,589.64Z" />
      <path class="cls-10" d="M485.59,575.52a1.44,1.44,0,0,1-.75,1.69A1.73,1.73,0,0,1,485.59,575.52Z" />
      <path class="cls-13"
        d="M478.44,538a6.89,6.89,0,0,0,3-.65c3.95-1.29,7.66-3.19,11.55-4.65a2.5,2.5,0,0,0,1.21-1.08c2.87-4.4,5.76-8.79,8.49-13.28a34.47,34.47,0,0,1,3.65-5.7l2.4.84a6.65,6.65,0,0,1-.68,1.69c-4.27,7.21-8.89,14.18-13.5,21.17q-6.21,9.4-12.41,18.82a6.11,6.11,0,0,0-.73,1.47,3.93,3.93,0,0,1-2.52-1.87c1.87-3.09,4.14-5.92,5.81-9.18a67.74,67.74,0,0,1-8.73,3.66c-.7-1-.5-2.13-.43-3.24a3.19,3.19,0,0,0,1.62-.23c1.24-.52,2.46-1.07,3.69-1.62,2.63-1.17,4.92-2.95,7.48-4.26,1.12-.57,1.69-1.71,2.32-3.17a36,36,0,0,1-4.65,2.08,85.39,85.39,0,0,1-9.24,2.92A10.8,10.8,0,0,1,478.44,538Z" />
      <path class="cls-14"
        d="M508.77,513.49c4.31,2.57,5.56,8.47,4.21,12.64-.37,1.17-.77,2.33-1.08,3.52A42.21,42.21,0,0,1,506.81,541a60.21,60.21,0,0,1-8,10.5,38.43,38.43,0,0,1-5.1,4.18,7.73,7.73,0,0,1-3.07,1.18,40.8,40.8,0,0,1-4.89.79,6.05,6.05,0,0,1-4.34-1,6.11,6.11,0,0,1,.73-1.47q6.22-9.39,12.41-18.82c4.61-7,9.23-14,13.5-21.17A6.65,6.65,0,0,0,508.77,513.49Z" />
      <path class="cls-14"
        d="M478.44,538a60.45,60.45,0,0,1,4.32-7.39c1.68-2.4,3.25-4.86,4.88-7.29,2.92-4.34,6.33-8.24,11.13-10.61a8.31,8.31,0,0,1,6.91-.62,1.12,1.12,0,0,1,.69.55,34.47,34.47,0,0,0-3.65,5.7c-2.73,4.49-5.62,8.88-8.49,13.28a2.5,2.5,0,0,1-1.21,1.08c-3.89,1.46-7.6,3.36-11.55,4.65A6.89,6.89,0,0,1,478.44,538Z" />
      <path class="cls-14"
        d="M545.13,509.57a36.67,36.67,0,0,1-7.23,15.78,9.64,9.64,0,0,1-5.79,3.66,8,8,0,0,1-9.46-6.51,11.87,11.87,0,0,1,0-3.47A35.86,35.86,0,0,1,528,504.16a41,41,0,0,1,3.35-4.75c2.46-2.82,6-3.16,9.09-1.08a10.74,10.74,0,0,1,4.61,7.78A24.81,24.81,0,0,1,545.13,509.57Z" />
      <path class="cls-14"
        d="M479.71,503.32c.31,0-.21,0-.71-.09-6.42-1.23-11.27-7.38-7.07-15.53a16.88,16.88,0,0,1,4.14-5.1,39.31,39.31,0,0,1,22.26-9.22,12.9,12.9,0,0,1,4.63.33,7.59,7.59,0,0,1,5,10.44,10.29,10.29,0,0,1-1.14,2,60.6,60.6,0,0,1-13.88,14A16.89,16.89,0,0,1,479.71,503.32Z" />
      <path class="cls-13"
        d="M536.22,553.18c-.93,3.34-2.35,6.51-3.59,9.74a104.44,104.44,0,0,0-4.18,12.48,2.3,2.3,0,0,0-.09,1.25c.72,2.51,1.42,5,2.13,7.54a10.07,10.07,0,0,1-9,1.55c1.6-2.7,1.93-5.88,3.28-8.7,1-2,1.3-4.32,2-6.46,1-3.11,2.24-6.17,3.42-9.23A74.33,74.33,0,0,0,533.5,552,7.18,7.18,0,0,1,536.22,553.18Z" />
      <path class="cls-14"
        d="M514.7,576.34a65.16,65.16,0,0,1,2.82-10.64A27.16,27.16,0,0,1,525.44,554,8.29,8.29,0,0,1,533.5,552a74.33,74.33,0,0,1-3.25,9.31c-1.18,3.06-2.37,6.12-3.42,9.23-.72,2.14-1.06,4.44-2,6.46-1.35,2.82-1.68,6-3.28,8.7a8.23,8.23,0,0,1-6.42-7.29C515,577.74,515.22,577,514.7,576.34Z" />
      <path class="cls-14"
        d="M536.22,553.18c2.87,1.37,4.9,3.36,4.93,6.81a25.91,25.91,0,0,1-1,8.66c-1,3-1.57,6.16-3.42,8.83-.83,1.2-1.69,2.38-2.6,3.52a3.54,3.54,0,0,0-.82,1.61c-.48-.11-.79.17-1.13.45a4.35,4.35,0,0,1-1.64,1.13c-.71-2.52-1.41-5-2.13-7.54a2.3,2.3,0,0,1,.09-1.25,104.44,104.44,0,0,1,4.18-12.48C533.87,559.69,535.29,556.52,536.22,553.18Z" />
      <path class="cls-13"
        d="M578.9,596.4q3.39-10.39,6-21c.63-2.56,1.25-5.11,1.71-7.71a3.11,3.11,0,0,1,2.77,1.17c-.14.66-.25,1.32-.41,2-.8,3.38-1.62,6.76-2.43,10.15a1.87,1.87,0,0,0,.15,1.71c2.09,3.12,3.23,6.68,4.55,10.15,0,1.48-1.06,2.26-1.94,3.17a9.82,9.82,0,0,1-.46-1,51.74,51.74,0,0,0-3.08-8c-.15-.3-.16-.75-.72-.65-.9,3-1.77,6-2.73,8.92-.32,1-.44,2.06-1.34,2.75C580.06,597.78,579.09,597.59,578.9,596.4Z" />
      <path class="cls-14"
        d="M578.9,596.4c-1.8-.36-2.24-1.92-2.46-3.3-.8-4.85-1.07-9.7.45-14.53.87-2.73,1.49-5.53,2.87-8.09a4.84,4.84,0,0,1,4.18-2.84c.89,0,1.8-.51,2.68.05-.46,2.6-1.08,5.15-1.71,7.71Q582.3,586,578.9,596.4Z" />
      <path class="cls-14"
        d="M591.25,592.85c-1.32-3.47-2.46-7-4.55-10.15a1.87,1.87,0,0,1-.15-1.71c.81-3.39,1.63-6.77,2.43-10.15.16-.66.27-1.32.41-2a1.93,1.93,0,0,1,1.42.76,12.39,12.39,0,0,1,3.48,6.69c.77,5.34-.43,10.32-2.12,15.26C592,592.08,591.89,592.67,591.25,592.85Z" />
      <path class="cls-14"
        d="M581,598c.9-.69,1-1.79,1.34-2.75,1-3,1.83-5.95,2.73-8.92.56-.1.57.35.72.65a51.74,51.74,0,0,1,3.08,8,9.82,9.82,0,0,0,.46,1A7,7,0,0,1,581,598Z" />
      <path class="cls-13"
        d="M573,549.64c-.5,1.41-1.75,1.93-3,2.49a23.23,23.23,0,0,0-.14-4.58c-.36-1.58,0-3.18-.47-4.72s.13-3-.45-4.72l-3,7.64-3,7.48-.82.07c-.59-.59-1.47-.65-2.09-1.17.49-1,1-2.08,1.47-3.15,1.53-3.8,3-7.59,4.51-11.41a37.84,37.84,0,0,0,2-5.41.79.79,0,0,0-.95.1,82,82,0,0,1-8,4.82c-1.34.7-2.55,1.71-4.15,1.79-.12-1.11.39-2.15.36-3.25.51-.21,1-.4,1.52-.64,4.26-2.05,8.06-4.85,12.07-7.31,1.74-1.07,2.33-2.63,2.81-4.39-.17,0-.25-.1-.28-.08l-9,5A26.69,26.69,0,0,1,557,530.8a9.32,9.32,0,0,1,2.26-4.45,2.15,2.15,0,0,0,1.2-.39c3-1.54,5.93-3.15,8.76-5,1.23-.79,2.33-1.8,3.85-2,.56-.09.57-.58.72-1,1.57-3.84,3.12-7.68,4.68-11.53a5.76,5.76,0,0,1,2.56.72,4.75,4.75,0,0,1-.53,2.12c-2.29,5.74-4.66,11.45-6.87,17.22-.5,1.3-1.33,2.5-1.43,3.93a46.82,46.82,0,0,0-.13,8.21C572.43,542.33,572.58,546,573,549.64Z" />
      <path class="cls-14"
        d="M554.92,538.87c1.6-.08,2.81-1.09,4.15-1.79a82,82,0,0,0,8-4.82.79.79,0,0,1,.95-.1,37.84,37.84,0,0,1-2,5.41c-1.46,3.82-3,7.61-4.51,11.41-.43,1.07-1,2.1-1.47,3.15h-.4a8.5,8.5,0,0,0-1-1.1,8.71,8.71,0,0,1-3.29-6.16A26.89,26.89,0,0,1,554.92,538.87Z" />
      <path class="cls-14"
        d="M573,549.64c-.39-3.64-.54-7.31-.9-10.95a46.82,46.82,0,0,1,.13-8.21c.1-1.43.93-2.63,1.43-3.93,2.21-5.77,4.58-11.48,6.87-17.22a4.75,4.75,0,0,0,.53-2.12,4.6,4.6,0,0,1,2.84,3.17,26.59,26.59,0,0,1,1.25,6.65c.34,6.39-1.38,12.34-3.53,18.24-.75,2.08-1.52,4.15-2.46,6.14a26.29,26.29,0,0,1-4.68,7.21C574,549.05,573.66,549.57,573,549.64Z" />
      <path class="cls-14"
        d="M578.47,506.49c-1.56,3.85-3.11,7.69-4.68,11.53-.15.37-.16.86-.72,1-1.52.23-2.62,1.24-3.85,2-2.83,1.81-5.78,3.42-8.76,5a2.15,2.15,0,0,1-1.2.39c0-1.29.82-2.16,1.49-3.07,3-4.07,6.09-8.07,8.73-12.39A8.83,8.83,0,0,1,578.47,506.49Z" />
      <path class="cls-14"
        d="M562.94,553.23l3-7.48,3-7.64c.58,1.77,0,3.31.45,4.72s.11,3.14.47,4.72a23.23,23.23,0,0,1,.14,4.58,4.69,4.69,0,0,1-3.65,1.17C565.22,553.21,564.08,553.25,562.94,553.23Z" />
      <path class="cls-14"
        d="M557,530.8a26.69,26.69,0,0,0,5.44-2.61l9-5s.11,0,.28.08c-.48,1.76-1.07,3.32-2.81,4.39-4,2.46-7.81,5.26-12.07,7.31-.5.24-1,.43-1.52.64A15.61,15.61,0,0,1,557,530.8Z" />
      <path class="cls-13"
        d="M624.31,571c.93-3.36,1.1-6.84,1.62-10.27a33.41,33.41,0,0,1,.8-4.87,2.47,2.47,0,0,0-.22-1.93c-2.5-5.16-4.62-10.49-6.61-15.87-1-2.63-2.13-5.19-3.33-7.73-1.52-3.19-2.87-6.46-4.29-9.7a3.2,3.2,0,0,0-.3-.45A2.82,2.82,0,0,1,614.1,518a4.31,4.31,0,0,1,1,1.54c1.53,3.59,2.86,7.27,4.64,10.73,1,2,1.94,4,2.92,6a90.32,90.32,0,0,0,4.16,8.36,5.21,5.21,0,0,0,2.55,2.21c2.69,1.12,5.24,2.57,7.93,3.71s5.16,2.49,8,3l.51.29c0,1.1,0,2.2,0,3.3-5.35-2-10.66-4.13-15.87-6.62.46,1.14,1.13,2.1,1.58,3.15,1.33,3.13,3,6,5.78,8.09.24.18.39.47.62.67a44,44,0,0,0,5.73,4.83,8.6,8.6,0,0,1-7.72,6c.19-.75-.32-1.27-.65-1.84-1.38-2.38-2.54-4.86-3.73-7.34-.67-1.39-1.45-2.73-2.37-4.44a20.58,20.58,0,0,0-.48,2.32A54.84,54.84,0,0,1,627,572.26,7.49,7.49,0,0,1,624.31,571Z" />
      <path class="cls-14"
        d="M637.82,532.3c1.44,3.51,3.33,6.82,4.72,10.35a61.07,61.07,0,0,1,2.74,9,3.88,3.88,0,0,1,0,2c-2.85-.51-5.39-1.9-8-3s-5.24-2.59-7.93-3.71a5.21,5.21,0,0,1-2.55-2.21,90.32,90.32,0,0,1-4.16-8.36c-1-2-1.9-4-2.92-6-1.78-3.46-3.11-7.14-4.64-10.73a4.31,4.31,0,0,0-1-1.54c2.88-1.95,6-1.75,8.89-.42a22.15,22.15,0,0,1,8.4,6.93C633.42,527.21,635.67,529.72,637.82,532.3Z" />
      <path class="cls-14"
        d="M624.31,571a19.94,19.94,0,0,1-6.58-6.24c-3.62-5-5.76-10.6-7.5-16.41-.46-1.52-.86-3.05-1.28-4.58,0-2-.76-3.81-1-5.76a39.37,39.37,0,0,1,.08-8.88,25.4,25.4,0,0,1,2.51-7.73c.28-.61.55-1.25,1.4-1.22a3.2,3.2,0,0,1,.3.45c1.42,3.24,2.77,6.51,4.29,9.7,1.2,2.54,2.36,5.1,3.33,7.73,2,5.38,4.11,10.71,6.61,15.87a2.47,2.47,0,0,1,.22,1.93,33.41,33.41,0,0,0-.8,4.87C625.41,564.17,625.24,567.65,624.31,571Z" />
      <path class="cls-14"
        d="M627,572.26A54.84,54.84,0,0,0,628.65,562a20.58,20.58,0,0,1,.48-2.32c.92,1.71,1.7,3.05,2.37,4.44,1.19,2.48,2.35,5,3.73,7.34.33.57.84,1.09.65,1.84-2,.69-4.08.23-6.11-.06-.72-.11-1.43-.35-2.14-.52A1,1,0,0,1,627,572.26Z" />
      <path class="cls-14"
        d="M643.6,567.33a44,44,0,0,1-5.73-4.83c-.23-.2-.38-.49-.62-.67-2.82-2.06-4.45-5-5.78-8.09-.45-1-1.12-2-1.58-3.15,5.21,2.49,10.52,4.6,15.87,6.62a28.82,28.82,0,0,1-.72,7.23A5.91,5.91,0,0,1,643.6,567.33Z" />
      <path class="cls-13"
        d="M684,515.93a10.65,10.65,0,0,1,.2,3l-7.65-.12c-.36,0-.78-.1-1,.31s.15.65.42.91l5.72,5.63c.29.29.54.67,1,.7a3.9,3.9,0,0,1-1.56,2.84c-2.56-2.53-5.13-5.06-7.66-7.61s-5-5.16-7.57-7.73c-.15-.16-.29-.4-.58-.35,0,2,.83,3.87,1.1,5.82s.84,3.92,1.21,5.89a35,35,0,0,0,1.59,6.75.92.92,0,0,1-.14.87,11,11,0,0,1-5.52-3,3.48,3.48,0,0,0,0-2.67,45.16,45.16,0,0,1-1-5c-.67-2.9-1.14-5.86-1.61-8.8-.23-1.46-.7-2.87-.83-4.31a4.11,4.11,0,0,0-1.28-2.7c-3.94-4.12-7.86-8.27-11.79-12.4-.38-.39-.67-.89-1.23-1.07.16-1.21,1.08-1.83,1.92-2.52,2,2.13,4.11,4.2,6,6.41a2.43,2.43,0,0,0,3.18.82,11.85,11.85,0,0,1,6.29-.75c2.24.3,4.46.67,6.71.95a14.28,14.28,0,0,0,3.27.2,13.5,13.5,0,0,1,3.27,3.26,6,6,0,0,1-.73,0c-4.45-.4-8.89-.95-13.31-1.57a7.87,7.87,0,0,0-4.73.82,1.59,1.59,0,0,0,.13.43c4.22,5.12,9.15,9.56,13.65,14.41a1.49,1.49,0,0,0,1.12.54C676.45,516,680.24,516.06,684,515.93Z" />
      <path class="cls-14"
        d="M645.85,492.86c.56.18.85.68,1.23,1.07,3.93,4.13,7.85,8.28,11.79,12.4a4.11,4.11,0,0,1,1.28,2.7c.13,1.44.6,2.85.83,4.31.47,2.94.94,5.9,1.61,8.8a45.16,45.16,0,0,0,1,5,3.48,3.48,0,0,1,0,2.67c-.71.23-1-.41-1.38-.73-.08-.16-.12-.37-.25-.48-4.95-4.3-8.69-9.59-12.35-15a16,16,0,0,1-1.14-2.5c-2-4.34-3.79-8.76-4-13.63A7.18,7.18,0,0,1,645.85,492.86Z" />
      <path class="cls-14"
        d="M673.26,498a14.28,14.28,0,0,1-3.27-.2c-2.25-.28-4.47-.65-6.71-.95a11.85,11.85,0,0,0-6.29.75,2.43,2.43,0,0,1-3.18-.82c-1.93-2.21-4-4.28-6-6.41,1.32-1.73,3.23-2.28,5.25-2.6a16.46,16.46,0,0,1,9.9,1.87,88,88,0,0,1,9.76,7.66A6.53,6.53,0,0,1,673.26,498Z" />
      <path class="cls-14"
        d="M684,515.93c-3.79.13-7.58,0-11.37,0a1.49,1.49,0,0,1-1.12-.54c-4.5-4.85-9.43-9.29-13.65-14.41a1.59,1.59,0,0,1-.13-.43,7.87,7.87,0,0,1,4.73-.82c4.42.62,8.86,1.17,13.31,1.57a6,6,0,0,0,.73,0C680.56,505.35,683.49,510,684,515.93Z" />
      <path class="cls-14"
        d="M669.18,532.82a.92.92,0,0,0,.14-.87,35,35,0,0,1-1.59-6.75c-.37-2-1-3.89-1.21-5.89s-1.1-3.81-1.1-5.82c.29,0,.43.19.58.35,2.53,2.57,5,5.17,7.57,7.73s5.1,5.08,7.66,7.61a5.16,5.16,0,0,1-2.74,2.55C675.53,533,672.46,534,669.18,532.82Z" />
      <path class="cls-14"
        d="M682.79,526.34c-.48,0-.73-.41-1-.7L676.05,520c-.27-.26-.59-.5-.42-.91s.59-.32,1-.31l7.65.12a19.9,19.9,0,0,1-.72,6C683.4,525.41,683.35,526,682.79,526.34Z" />
      <path class="cls-15"
        d="M648.83,436.53c-.07,1-.13,2.08-.2,3.13-1.47-.32-2.42.7-3.49,1.39-4.34,2.79-8.5,5.78-13.33,7.87-5.13,2.21-10.19,4.36-15.74,5.23-7.55,1.19-15.09,2.08-22.67.15a47.58,47.58,0,0,0-6.87-1.32c-4-.43-7.81-1.93-11.52-3.28a44.8,44.8,0,0,1-13.57-7.33c-1.89-1.57-3.67-3.29-5.63-4.75a72.12,72.12,0,0,1-10.49-9.73A43.06,43.06,0,0,1,536,411.11c-1.76-5.87-1.66-12-1.92-18-.15-3.47-.57-7,.29-10.41a2.56,2.56,0,0,0-.05-.77,19,19,0,0,1,1.38-8.36,44,44,0,0,0,1.88-6.68,15.63,15.63,0,0,1,.54-2.27c1-2.77,2.07-5.54,3.21-8.27a41.32,41.32,0,0,1,5.82-10,37.16,37.16,0,0,1,9.28-8.71,9.36,9.36,0,0,0,3.9-4.68.85.85,0,0,0-.34-1,19.49,19.49,0,0,1,2-1.05,63.6,63.6,0,0,1,33.53-3.32c17.53,3,31.32,12.2,42.37,25.84a3.13,3.13,0,0,1,.36,1c-1.35.09-1.93-1.15-2.91-1.72a4.2,4.2,0,0,0-3.71-.33,4.62,4.62,0,0,0-3,3.31,20.51,20.51,0,0,0-.95,5.72,101.85,101.85,0,0,0,.62,12.35,222.94,222.94,0,0,0,11.1,47.82A67.53,67.53,0,0,0,644,431.85C645.09,433.88,646.28,435.94,648.83,436.53Z" />
      <path class="cls-16"
        d="M560,331.93a.85.85,0,0,1,.34,1,9.36,9.36,0,0,1-3.9,4.68,37.16,37.16,0,0,0-9.28,8.71,41.32,41.32,0,0,0-5.82,10c-1.14,2.73-2.18,5.5-3.21,8.27a15.63,15.63,0,0,0-.54,2.27,44,44,0,0,1-1.88,6.68,19,19,0,0,0-1.38,8.36,2.56,2.56,0,0,1,.05.77c-.86,3.45-.44,6.94-.29,10.41.26,6,.16,12.15,1.92,18a43.06,43.06,0,0,0,9.33,16.78,72.12,72.12,0,0,0,10.49,9.73c2,1.46,3.74,3.18,5.63,4.75A44.8,44.8,0,0,0,575,449.7c3.71,1.35,7.48,2.85,11.52,3.28a47.58,47.58,0,0,1,6.87,1.32c7.58,1.93,15.12,1,22.67-.15,5.55-.87,10.61-3,15.74-5.23,4.83-2.09,9-5.08,13.33-7.87,1.07-.69,2-1.71,3.49-1.39,1.5,2.09,3.72,3.16,6,4.22a17.88,17.88,0,0,1,2.77,1.38c3.24,2.27,2.82,6.47-.81,8.08a15.64,15.64,0,0,1-3,.78,3.67,3.67,0,0,0-2.25.83,14.69,14.69,0,0,0,1.64,6.21,9.94,9.94,0,0,1,1.29,4,5.06,5.06,0,0,1-3.66,5.69,14.69,14.69,0,0,1-10.63-.64c-.58-.25-1.06-.76-1.87-.58,0,1.57.73,3,1.21,4.41A29.87,29.87,0,0,1,641,484.76c-.16,4.45-2.39,7.28-6.71,8.32a17.46,17.46,0,0,1-7.71-.26,31.6,31.6,0,0,1-11.51-4.5,2.47,2.47,0,0,0-1.82-.64c-.77,1.23-.62,2.72-.9,4.09a16,16,0,0,1-2,5.43c-2.19,3.43-5.69,4-9,1.61a13.69,13.69,0,0,1-3-3.07,28.07,28.07,0,0,1-4.11-8.75c-.29-1-.18-2.07-1-2.83-.78,0-.67.67-.77,1.11-.51,2.15-.91,4.32-1.51,6.44a20.49,20.49,0,0,1-1.59,4c-1.56,2.94-3.83,4.07-7.08,3.47-6.23-1.15-10-5-11.95-10.92a33.57,33.57,0,0,1-.72-3.36c-.85-.5-1.21.2-1.61.62-4.59,4.8-10.17,5.84-16.43,4.38-4.72-1.1-7.12-3.89-7.44-8.68,0-.64,0-1.28,0-1.9-1-.53-1.46.29-2.06.64A31.28,31.28,0,0,1,532,483.75a13,13,0,0,1-8-.78c-4.44-2.09-6.17-5.35-5-10.09a51.19,51.19,0,0,1,3.81-10.6q.78-1.56,1.5-3.15a.69.69,0,0,0-.74-1c-.78,0-1.55.2-2.32.17-3.81-.12-6.23-1.89-7.56-5.53-.18-.48-.22-1-.79-1.36-2.12,1.11-4.25,2.3-6.45,3.36a23.8,23.8,0,0,1-9.33,2.49,14.58,14.58,0,0,1-8.2-1.94,8,8,0,0,1-3.17-11.06,23.82,23.82,0,0,1,5.54-6.46c1.32-1.2,2.69-2.36,4-3.48-.35-1.19-1.26-1-1.92-1.21a17,17,0,0,1-10.16-7.94,13.12,13.12,0,0,1-1.79-6.29,8.34,8.34,0,0,1,5-8.09,25.19,25.19,0,0,1,7.49-2c2.3-.35,4.6-.75,6.89-1.18a3.41,3.41,0,0,0,2.09-.91c.09-1.23-1.07-1.66-1.63-2.46-1.4-2-2.36-4.14-1.08-6.51s3.71-3.05,6.34-2.85c.39,0,.77.1,1.15.15,3.5.47,3.51.47,4.8-2.62a96.75,96.75,0,0,0,3.9-11,77,77,0,0,1,24.45-38,69.77,69.77,0,0,1,17.36-11A14,14,0,0,1,560,331.93Z" />
      <path class="cls-17"
        d="M648.83,436.53c-2.55-.59-3.74-2.65-4.86-4.68a67.53,67.53,0,0,1-4.54-10.26,222.94,222.94,0,0,1-11.1-47.82,101.85,101.85,0,0,1-.62-12.35,20.51,20.51,0,0,1,.95-5.72,4.62,4.62,0,0,1,3-3.31,4.2,4.2,0,0,1,3.71.33c1,.57,1.56,1.81,2.91,1.72v0c-.11.75.39.92,1,1,6.57,5.74,10.13,13.3,12.91,21.33.55,1.59.93,3.23,1.48,4.82a87.65,87.65,0,0,1,4.21,33.66,51.59,51.59,0,0,1-3.44,15.88C653.32,433.85,651.68,435.74,648.83,436.53Z" />
      <path class="cls-18" d="M639.24,355.41c-.58-.08-1.08-.25-1-1C638.86,354.49,639.09,354.91,639.24,355.41Z" />
      <path class="cls-19"
        d="M654.25,399.69c.41,7.37-2.22,12.44-5.87,12.5s-8.4-7-8.51-13.31,1.82-12.48,5.46-12.54S653.8,391.71,654.25,399.69Z" />
      <path class="cls-2"
        d="M579.75,290.51a149,149,0,0,1-4.81-15.71,31.22,31.22,0,0,1-.09-13.87,12.1,12.1,0,0,1,3.81-6.62,8,8,0,0,1,10.63-.36,12.29,12.29,0,0,1,4.56,6.6c.47,1.74.73,3.53,1.11,5.45.73-1.44,1.3-2.84,2.1-4.09a16.27,16.27,0,0,1,14.23-8c4.68-.09,9.72,4.31,9.94,9.59a23.55,23.55,0,0,1-1.8,10.25,58.53,58.53,0,0,1-5.64,9.73c-1.94,2.9-4,5.68-6.2,8.68,4.43,2.47,5,6.58,4.53,11.05a20.76,20.76,0,0,1-3.34,9c-.7,1.08-1.47,2.12-2.24,3.16a2.48,2.48,0,0,0-.52,2.5c1.18,3.43.34,6.64-1.24,9.73a39,39,0,0,1-5.91,8.17c-2.24,2.51-4.66,4.86-7,7.25a5.34,5.34,0,0,1-1.82,1.43c-1.56,1.3-2.4,1.68-2.76,3.34a2.42,2.42,0,0,1-2.62,2.16c-1.34-.1-1.79-1.29-1.73-2.59.1-2.26-1-4-2-5.75A66.22,66.22,0,0,1,575.55,330c-1.59-4.68-2.13-9.34.23-13.94a2.1,2.1,0,0,0,0-1.86c-.28-.73-.52-1.47-.76-2.2a24.6,24.6,0,0,1-1.17-10.73C574.38,297,575.55,292.91,579.75,290.51Z" />
      <ellipse class="cls-20" cx="1363.12" cy="591.81" rx="109.38" ry="11.39" />
      <g id="rightPerson">
      <path class="cls-21"
        d="M1401.52,468.5a31.64,31.64,0,0,1-1.76-9.08,5.69,5.69,0,0,1,1.48-3.83,45.75,45.75,0,0,1,9.48-7.74c3.91-2.63,7.79-5.27,10.83-8.93a79.84,79.84,0,0,0,7.27-9.72c2.52-4.2,6.38-6,11.54-5.21a51.62,51.62,0,0,1,8,1.84c3.26,1,6.64,1.55,9.89,2.62a37.33,37.33,0,0,1,6.1,2.61c1.54.83,3.11,1.61,4.63,2.46a15.35,15.35,0,0,1,7.67,10.52,120,120,0,0,1,2.89,25.13c0,3.11.17,6.22.24,9.34a31.86,31.86,0,0,1-.42,5.6c-.22,1.47-.2,3-.31,4.47a81.19,81.19,0,0,1-9.82,33.08,49.9,49.9,0,0,1-2.54,4.44c-.42-.33-.06-.64.08-.89,2.11-3.75,3.09-7.92,4.42-12,.14-.43.34-.94-.24-1.22s-1-.43-1.49.14-.84.86-1.19,1.33a20.92,20.92,0,0,1-2.2,2.31,2.42,2.42,0,0,1-1.52.57c-1,.11-1.79-.5-2.67-.71a12.62,12.62,0,0,1-4.23-2c-1.69-1.15-3.41-2.24-5.13-3.34-.94-.6-1.24-.65-1.82-.08-.94.93-1.9,1.83-2.75,2.85-1.23,1.46-2.54,2.86-3.88,4.23a2.68,2.68,0,0,1-2.87.38c-.89-.45-.9-1.26-.89-2.09a4.4,4.4,0,0,1,.16-1.13c.86-3.1,1.89-6.16,2.61-9.31.3-1.32.32-1.31-.86-1.94a4.16,4.16,0,0,1-.76-.46c-2.59-2.27-5.27-4.43-7.69-6.9q-1.7-1.72-3.3-3.55c-1.65-1.89-3.42-3.67-5-5.6-2.33-2.81-4.55-5.71-6.82-8.57a20.09,20.09,0,0,0-1.7-2.22,41.49,41.49,0,0,1-3.53-4.18c-1.5-1.86-2.75-3.89-4.09-5.86-.54-.79-.56-.8-1.43-.43A57.31,57.31,0,0,0,1401.52,468.5Z" />
      <path class="cls-22"
        d="M1401.52,468.5a57.31,57.31,0,0,1,6.32-3c.87-.37.89-.36,1.43.43,1.34,2,2.59,4,4.09,5.86a41.49,41.49,0,0,0,3.53,4.18,20.09,20.09,0,0,1,1.7,2.22c2.27,2.86,4.49,5.76,6.82,8.57,1.6,1.93,3.37,3.71,5,5.6q1.6,1.83,3.3,3.55c2.42,2.47,5.1,4.63,7.69,6.9a4.16,4.16,0,0,0,.76.46c1.18.63,1.16.62.86,1.94-.72,3.15-1.75,6.21-2.61,9.31a4.4,4.4,0,0,0-.16,1.13c0,.83,0,1.64.89,2.09a2.68,2.68,0,0,0,2.87-.38c1.34-1.37,2.65-2.77,3.88-4.23.85-1,1.81-1.92,2.75-2.85.58-.57.88-.52,1.82.08,1.72,1.1,3.44,2.19,5.13,3.34a12.62,12.62,0,0,0,4.23,2c.88.21,1.66.82,2.67.71a2.42,2.42,0,0,0,1.52-.57,20.92,20.92,0,0,0,2.2-2.31c.35-.47.82-.86,1.19-1.33s1-.39,1.49-.14.38.79.24,1.22c-1.33,4-2.31,8.2-4.42,12-.14.25-.5.56-.08.89a46.25,46.25,0,0,1-3.29,5.61,70.2,70.2,0,0,1-5.33,7.18c-1.4,1.65-2.63,3.47-4,5.19a22.82,22.82,0,0,1-6.47,5.75,7.2,7.2,0,0,1-1.89.76c-1.08.29-1.67,0-2.06-1.13a42.72,42.72,0,0,0-2-4.18,33.47,33.47,0,0,1-5.87,1.43c-.51,0-1,.11-1.53.11-.7,0-.92-.3-.64-1a5.88,5.88,0,0,1,1.25-1.76c.7-.73,1.42-1.45,2.13-2.17-.28-.37-.5-.13-.71-.06l-4,1.35a6.27,6.27,0,0,1-1.12.26c-1.79.21-2.45-.17-3.3-1.76-.62-1.16-1.24-2.33-1.91-3.46-1.93-3.27-3.56-6.7-5.16-10.14a25.64,25.64,0,0,1-1.58-5.52,2,2,0,0,1,.69-2.19c2.83-2.22,7.38-8.64,7.46-9.12-.4.11-5.57,3.63-8.11,4.93l-.23.11c-2.41,1.07-3.27.76-4.31-1.61a79.36,79.36,0,0,1-4.82-14.4,4.9,4.9,0,0,1,.62-3.92,32.35,32.35,0,0,1,3.26-4.56,18.41,18.41,0,0,0,2.56-4.26c.07-.11.27-.21.11-.35s-.29,0-.38.12c-2.11.66-4.22,1.34-6.33,2a18.66,18.66,0,0,1-3.12.67,1.64,1.64,0,0,1-1.88-.76,1.72,1.72,0,0,1,.32-1.9,27.34,27.34,0,0,1,2-2.2c.27-.29.51-.53.23-1-1.77-2.77-2.56-5.93-3.47-9-.5-1.73-1.26-3.35-1.81-5.05C1401.84,469.56,1401.69,469,1401.52,468.5Z" />
      <path class="cls-23"
        d="M1251.25,404.43a45,45,0,0,1,4.54-6.8c.9-1.14,1.65-2.37,2.51-3.53a39.72,39.72,0,0,1,7.71-8,26.67,26.67,0,0,0,2.93-2.48,4,4,0,0,1,3.07-1.35,1.18,1.18,0,0,0,.38,0c1.82-.71,3.23.15,4.55,1.24a41.8,41.8,0,0,1,4.65,4.57c3.28,3.71,6.66,7.33,10.2,10.8.3.29.55.64.83,1,.59-.28.7-.77.92-1.15a98.66,98.66,0,0,1,5.76-9.22,65.09,65.09,0,0,1,9.76-10.29c1.24-1.1,11.55-10.15,16.35-12.34,2.36-1.08,4.7-2.21,7.06-3.3a21,21,0,0,1,5-1.7,7.59,7.59,0,0,1,8,3.38,13,13,0,0,1,1.16,2.13c2.35,5.67,16.21,58.63,16.19,62.91a4.34,4.34,0,0,0,0,.51c.08.66-.16,1-.87,1.11a32.47,32.47,0,0,0-10.4,3.78,21.18,21.18,0,0,0-8.87,9.31,41.51,41.51,0,0,0-3.14,8.5c-1.09,4.6-2.4,9.16-3.17,13.83a31.09,31.09,0,0,0-.46,5.35c.09,6.07-.59,12.11-.54,18.17,0,1.88,0,3.76,0,5.64a17.79,17.79,0,0,1-.18,2.42,2.56,2.56,0,0,1-2.38,2.44,12.82,12.82,0,0,1-4.37,0c-.23,1.59-.43,3.14-.68,4.69a21.37,21.37,0,0,1-.53,2.5,1.85,1.85,0,0,1-1.69,1.52,1.83,1.83,0,0,1-1.86-1.46,19.32,19.32,0,0,1-.7-4.67c-.05-.46-.06-.92-.09-1.43-.4.2-.42.56-.52.86l-2.12,6c-.33.92-.44,1-1.4.85a7.5,7.5,0,0,1-2.7-1.11,66.46,66.46,0,0,1-8.71-6.69,9.66,9.66,0,0,1-.9-.91,2.49,2.49,0,0,1-.66-2.1c.29-2.81.83-5.57,1.28-8.35s.91-5.38,1.22-8.09c.13-1.05.27-2.1.43-3.15a1.72,1.72,0,0,0-.09-1.39,8,8,0,0,0-2,2.56c-.95,1.91-1.85,3.84-2.76,5.77-.26.54-.49,1.08-.76,1.62a3.05,3.05,0,0,1-4.35,1.46l-2.3-1.09a7.25,7.25,0,0,1,0-1.4c.4-2.13.42-4.3.69-6.44s.49-4.21.89-6.28q1.17-6,2.6-11.93c1.56-6.48,3.37-12.89,5.52-19.21.1-.29.38-.6.13-.94,0,0-.09-.07-.12-.06l-.6.18A2.3,2.3,0,0,1,1303,442a40.6,40.6,0,0,0-3.26-3.42c-.19-.21-.36-.5-.7-.46s-.24.35-.31.54a86,86,0,0,0-2.49,8.3c-.27,1.07-.54,2.14-.85,3.2-.2.67-.43.71-1,.24s-1.38-1.13-2-1.77-1.62-1.35-2.46-2.07a4,4,0,0,0-.31.63,25.61,25.61,0,0,0-.82,5.14,2.19,2.19,0,0,1-.18.87c-.32.68-.47.74-1.13.32-.9-.57-1.65-1.33-2.5-2a70.27,70.27,0,0,1-6.71-6.07c-2.84-2.7-5.61-5.47-8.26-8.37-1.89-2.07-3.77-4.16-5.78-6.14a4.6,4.6,0,0,1-1.43-2.34c-.4-1.85.16-3.63.25-5.44.06-1.21.57-2.42.52-3.62a22.15,22.15,0,0,1,.3-3.75,10,10,0,0,0,0-2,1,1,0,0,0-.72-.82c-.41-.12-.59.18-.8.48a17.1,17.1,0,0,0-1.13,2c-.32.59-.44.6-.94.11a5.39,5.39,0,0,1-.47-.6c-.82-1-1.61-2.08-2.46-3.08-1.65-1.95-3.22-3.95-4.78-6C1252.18,405.41,1251.92,404.73,1251.25,404.43Z" />
      <path class="cls-24"
        d="M1251.25,404.43c.67.3.93,1,1.33,1.51,1.56,2,3.13,4,4.78,6,.85,1,1.64,2.05,2.46,3.08a5.39,5.39,0,0,0,.47.6c.5.49.62.48.94-.11a17.1,17.1,0,0,1,1.13-2c.21-.3.39-.6.8-.48a1,1,0,0,1,.72.82,10,10,0,0,1,0,2,22.15,22.15,0,0,0-.3,3.75c0,1.2-.46,2.41-.52,3.62-.09,1.81-.65,3.59-.25,5.44a4.6,4.6,0,0,0,1.43,2.34c2,2,3.89,4.07,5.78,6.14,2.65,2.9,5.42,5.67,8.26,8.37a70.27,70.27,0,0,0,6.71,6.07c.85.63,1.6,1.39,2.5,2,.66.42.81.36,1.13-.32a2.19,2.19,0,0,0,.18-.87,25.61,25.61,0,0,1,.82-5.14,4,4,0,0,1,.31-.63c.84.72,1.71,1.31,2.46,2.07s1.33,1.19,2,1.77.78.43,1-.24c.31-1.06.58-2.13.85-3.2a86,86,0,0,1,2.49-8.3c.07-.19,0-.43.31-.54s.51.25.7.46A40.6,40.6,0,0,1,1303,442a2.3,2.3,0,0,0,2.64.66l.6-.18s.07,0,.12.06c.25.34,0,.65-.13.94-2.15,6.32-4,12.73-5.52,19.21q-1.42,5.94-2.6,11.93c-.4,2.07-.62,4.18-.89,6.28s-.29,4.31-.69,6.44a7.25,7.25,0,0,0,0,1.4c-.41,2.62-.54,5.27-.75,7.9s-.8,3.59-3.87,4.11c-.94.16-.95.11-1,1,0,1.54,0,3.07-.07,4.61a13.4,13.4,0,0,1-.17,1.78,2.62,2.62,0,0,1-2.66,2.58,22.78,22.78,0,0,1-4,0,6.17,6.17,0,0,0-.28,1.59,45.57,45.57,0,0,1-.79,4.93,4.57,4.57,0,0,1-.31,1,1.73,1.73,0,0,1-3.26.09,6.09,6.09,0,0,1-.51-1.72,28.11,28.11,0,0,1-.33-3.31,2.86,2.86,0,0,0-.28-1.5c-.41,1.12-.8,2.13-1.16,3.15-.45,1.29-.88,2.59-1.33,3.87-.31.86-.42.92-1.32.78a7.19,7.19,0,0,1-2.6-1,72.91,72.91,0,0,1-9-6.91,3.77,3.77,0,0,1-1.32-3.87c.49-2.69.93-5.38,1.31-8.09.4-2.87,1-5.71,1.19-8.6,0-.72.27-1.43.39-2.14a1.33,1.33,0,0,0,0-1c-.38-.16-.54.14-.73.36a15.33,15.33,0,0,0-2.51,4.13c-.83,1.78-1.63,3.57-2.48,5.34a3,3,0,0,1-4,1.5,22.82,22.82,0,0,1-8.24-5.94c-1.7-2-5.53-7-5.43-7.61a.57.57,0,0,0,0-.26c-1.18-2.74-.34-5.44.22-8.12a19.38,19.38,0,0,0,.75-4.29,22.15,22.15,0,0,0-1.83,3.6c-.39.08-.53-.24-.71-.45a17.19,17.19,0,0,1-2.73-4.16c-1.09-2.36-2.16-4.73-3.25-7.09-.14-.31-.22-.76-.46-.89-1.31-.74-1.41-2-1.42-3.23a77.25,77.25,0,0,1,.2-9.86c.18-1.44.62-2.83.88-4.25.11-.06.2-.17.09-.26s-.17,0-.22.13c-1.23.68-2.29,1.62-3.56,2.23-.57.27-1.14.58-1.73.82a1.55,1.55,0,0,1-1.53,0,4.35,4.35,0,0,1,.54-1.37c.84-1.63,1.68-3.26,2.54-4.87a37.83,37.83,0,0,1,4.54-6.8c1.07-1.26,2.08-2.59,3.09-3.91a31.46,31.46,0,0,0,4.27-7.09c1.7-4.14,3.57-8.2,5.65-12.17.16-.3.26-.63.39-.94a6.86,6.86,0,0,1,1.6-2.87,3.28,3.28,0,0,0,.51-.88C1249.51,407.35,1250.25,405.82,1251.25,404.43Z" />
      <path class="cls-25"
        d="M1352.18,405.28a3.3,3.3,0,0,1-.32.55c-.6.76-.62.78-1.4.15a46.2,46.2,0,0,0-6.21-4.27,17.36,17.36,0,0,0-14.67-1.44c-.4.13-.82.22-1.23.34l-3-2.21a68.55,68.55,0,0,1-10.93-9.77c-2.19-2.5-4.44-4.95-6.83-7.26a82.7,82.7,0,0,1-8.26-9.56c-1.62-2.14-3.07-4.39-4.55-6.64a2.3,2.3,0,0,1-.09-2.8c.3-.47.53-1,.8-1.46a1,1,0,0,0,0-1.31c-.13-.46-.33-.77-.89-.5a5.74,5.74,0,0,1-.69.26l-2.81,0a3.76,3.76,0,0,1-2.8-1.28c-3.38-3.8-7.28-7.15-10.1-11.44,2.16-2.12,4.54-4,6.87-5.91a175.94,175.94,0,0,1,15.41-11.34,55.6,55.6,0,0,1,7.77-4.4,21.2,21.2,0,0,1,4.88-1.43c.07.23,4.09-.88,5.37,2.73a11.25,11.25,0,0,1,1.07,2c1.9,4.24,3.82,8.48,5.7,12.73a67.49,67.49,0,0,0,4.7,8.06c3,4.84,5.67,9.83,8.18,14.91,2.24,4.55,4.1,9.27,6,14,1.28,3.2,2.86,6.29,3.92,9.58s2,6.87,2.78,10.36c.51,2.24,1,4.47,1.44,6.73A.51.51,0,0,0,1352.18,405.28Z" />
      <path class="cls-26"
        d="M1297.55,442.54c-.17,1-1.08,1.28-2,.84a13.29,13.29,0,0,1-4.77-3.15,63.33,63.33,0,0,0-7.29-6.8c-.92-.79-1-1.09-.59-2.22,1-2.75,1.74-5.62,2.94-8.31a8.08,8.08,0,0,0,.36-2,.84.84,0,0,0-.48-.95.91.91,0,0,0-1.06.23c-.87.82-1.74,1.63-2.59,2.47-1.18,1.17-2.33,2.38-3.52,3.54-.73.72-1.25.7-1.94-.06-3.14-3.5-6.66-6.62-10-9.94-2.18-2.17-4.3-4.39-6.27-6.75a37.85,37.85,0,0,1-2.52-3.5,1.85,1.85,0,0,1-.12-1.35c.28-2.94,1.79-5.4,3-8a63,63,0,0,1,3.46-6.42c.13-.2.32-.42.09-.68a.79.79,0,0,0-.7-.23c-.38,0-.59.31-.85.53a65.67,65.67,0,0,0-7.83,8.25,4.65,4.65,0,0,1-1.58,1.28c-.84.39-1.06.33-1.6-.41-.89-1.2-1.79-2.39-2.62-3.63-1.81-2.7-3.73-5.31-5.37-8.12a1.81,1.81,0,0,1,.12-2.39c1.23-1.48,2.35-3,3.52-4.56a4.38,4.38,0,0,0,.74-1.11,4.48,4.48,0,0,0-2,.33,17,17,0,0,0-3.22,1.23,1,1,0,0,1-1.19,0,1.07,1.07,0,0,1-.27-1.28,6.28,6.28,0,0,1,1-1.93,18.68,18.68,0,0,1,4.27-4,48,48,0,0,1,7.42-4,17,17,0,0,0,5.62-3.94c1.33-1.5,2.73-2.94,4.11-4.4.28-.3.51-.69,1-.81.16.47-.19.8-.36,1.17-.56,1.24-1.31,2.39-1.76,3.68a11.51,11.51,0,0,0,0,4.64,10.12,10.12,0,0,0,.29,1.35c.52,1.48,1.33,2.64,3.08,2.74a3.09,3.09,0,0,0,1.8.25,13,13,0,0,0,2.41.26,1.51,1.51,0,0,1,1.71,1.18,15.09,15.09,0,0,0,3.11,5.09c3.54,4.32,7.11,8.62,10.91,12.72a1.66,1.66,0,0,1,.36,1.95,22,22,0,0,0-1.13,3.12,2.16,2.16,0,0,0,0,2.08h0a.75.75,0,0,0,.24.77.66.66,0,0,1,.06.2.3.3,0,0,0,.18.31l0,0a.46.46,0,0,0,.28.47,23.73,23.73,0,0,1,1.53,2,33.3,33.3,0,0,0,3.84,5.41,96.43,96.43,0,0,0,11.73,11.22,12.12,12.12,0,0,0,4.68,2.56c.5.44,1.12.19,1.68.3a45.19,45.19,0,0,1-4.59,14.17c-.93,1.82-1.56,3.8-2.9,5.39-.21.26-.34.59-.73.67a1,1,0,0,1-1.23-1.06c-.08-2,.47-8.55.21-8.87C1299.86,434.5,1297.59,442.33,1297.55,442.54Z" />
      <path class="cls-27"
        d="M1285.53,401.6a.66.66,0,0,0-.06-.2.79.79,0,0,0-.24-.77h0c0-.69,0-1.39,0-2.08a22,22,0,0,1,1.13-3.12,1.66,1.66,0,0,0-.36-1.95c-3.8-4.1-7.37-8.4-10.91-12.72a15.09,15.09,0,0,1-3.11-5.09,1.51,1.51,0,0,0-1.71-1.18,13,13,0,0,1-2.41-.26,2.87,2.87,0,0,0-1.8-.25c-1.75-.1-2.56-1.26-3.08-2.74a10.12,10.12,0,0,1-.29-1.35,37.81,37.81,0,0,0,0-4.64c.45-1.29,1.2-2.44,1.76-3.68.17-.37.52-.7.36-1.17h0c.18-.34,8.55-9.23,13-13.35a6.13,6.13,0,0,1,.51-.38c2.82,4.29,6.72,7.64,10.1,11.44a3.76,3.76,0,0,0,2.8,1.28c1.1-.15,3.28-.18,3.5-.29.85-.73,1.94.59.87,1.81-.27.49-.5,1-.8,1.46a2.3,2.3,0,0,0,.09,2.8c1.48,2.25,2.93,4.5,4.55,6.64a82.7,82.7,0,0,0,8.26,9.56c2.39,2.31,4.64,4.76,6.83,7.26a68.55,68.55,0,0,0,10.93,9.77l3,2.21a9.48,9.48,0,0,1-2.54,1.14,19.87,19.87,0,0,0-5.8,3.18,47.2,47.2,0,0,0-3.94,3.25,6.53,6.53,0,0,0-1.36,1.69,38.56,38.56,0,0,0-4.36,10.46c-.26,1.11-.54,2.22-.81,3.33h-1.75a12.12,12.12,0,0,1-4.68-2.56,96.43,96.43,0,0,1-11.73-11.22,33.3,33.3,0,0,1-3.84-5.41,23.73,23.73,0,0,0-1.53-2,.5.5,0,0,0-.28-.47l0,0A.32.32,0,0,0,1285.53,401.6Z" />
      <path class="cls-28" d="M1307.79,423.65h1.75a.25.25,0,0,1-.07.29C1308.91,423.84,1308.29,424.09,1307.79,423.65Z" />
      <path class="cls-27" d="M1262.65,365.24a37.81,37.81,0,0,1,0,4.64A11.51,11.51,0,0,1,1262.65,365.24Z" />
      <path class="cls-28" d="M1285.21,398.54c0,.69,0,1.39,0,2.08A2.16,2.16,0,0,1,1285.21,398.54Z" />
      <path class="cls-29" d="M1266,374a2.87,2.87,0,0,1,1.8.25A3.09,3.09,0,0,1,1266,374Z" />
      <path class="cls-28" d="M1285.23,400.63a.79.79,0,0,1,.24.77A.75.75,0,0,1,1285.23,400.63Z" />
      <path class="cls-28" d="M1285.73,401.94a.5.5,0,0,1,.28.47A.46.46,0,0,1,1285.73,401.94Z" />
      <path class="cls-28" d="M1285.53,401.6a.32.32,0,0,1,.18.31A.3.3,0,0,1,1285.53,401.6Z" />
      <path class="cls-7"
        d="M1413.11,340.57c7.13-10.86,15.78-20.44,24.48-21.33,0,0,22.6,90.21-19.87,134.39-30.19,31.39-28.38-22.28-24.8-56A128.72,128.72,0,0,1,1413.11,340.57Z" />
      <path class="cls-30"
        d="M1368.85,522.65c-.14,5.12-.68,10.21-1.12,15.3-.49,5.71-1.82,11.27-2.83,16.88-.52,2.9-.84,5.82-1.45,8.7a3.5,3.5,0,0,1-1.14,2.21,1.28,1.28,0,0,1-1.84.06,4.35,4.35,0,0,1-1.34-1.69c-.71-1.4-1.34-2.84-1.92-4.31a145.81,145.81,0,0,1-6.13-17.86,139.39,139.39,0,0,1-3.73-22.41,68.14,68.14,0,0,1-.25-7.42,19.52,19.52,0,0,1,3.73-10.58,8.31,8.31,0,0,1,7.65-3.83,6.62,6.62,0,0,1,4.68,1.94,18.78,18.78,0,0,1,5.23,11.51A107.86,107.86,0,0,1,1368.85,522.65Z" />
      <path class="cls-19" d="M1210.49,319.21c.1-.15.27-.22.39-.11s0,.24-.12.35Z" />
      <path class="cls-19" d="M1350.38,499.57c0-.1.1-.23.22-.13s0,.2-.1.26Z" />
      <path class="cls-31"
        d="M1408,478.05c0,14.4-22.38,36.89-31,36.89s-15.64-11.68-15.64-26.08,7-26.08,15.64-26.08S1408,463.64,1408,478.05Z" />
      <path class="cls-32"
        d="M1312.84,478.16a34.29,34.29,0,0,1,1.41-5.82,60.82,60.82,0,0,1,3.32-8.85,1.13,1.13,0,0,0-.2-1.46c-1-1.11-2.08-2.14-3-3.3a3.19,3.19,0,0,1-.51-3.44,52.06,52.06,0,0,1,3.92-7.47,41.36,41.36,0,0,1,6.24-8.4,4.88,4.88,0,0,0,1.33-3.33c.38-6.79,2.61-12.82,7.44-17.75a37.38,37.38,0,0,1,9.39-7.23,41.28,41.28,0,0,1,12.39-3.88,50.53,50.53,0,0,1,6.62-.56,11.47,11.47,0,0,0,3.83-.21c4-.25,7.89-.59,11.83-.87,6.16-.44,12.35-.62,18.31,1.6,1.31.49,2.64.94,3.95,1.46a13.88,13.88,0,0,1,3.77,2.36,77.75,77.75,0,0,1,6.43,6,19.75,19.75,0,0,1,3.47,5.18,8.38,8.38,0,0,1,.62,2.59,2.74,2.74,0,0,0,.36,1.34,2.67,2.67,0,0,1-1.28,2.61,1.7,1.7,0,0,0-.55.84c-1.73,3.8-3.47,7.59-6.33,10.73a.91.91,0,0,0-.08,1.25c.41.65.86,1.28,1.21,2,.76,1.47.91,2.63-.33,3.7a1.71,1.71,0,0,0-.37.51,14,14,0,0,1-3.47,3.72c-3.1,2.59-6.85,4.09-10.35,6a1.77,1.77,0,0,1-1.82,0,5,5,0,0,0-.7-.34c-.75-.29-1.65.2-1.51.95s-.26,1.57.07,2.38a1.49,1.49,0,0,1-.82,1.69,1.66,1.66,0,0,1-2-.35c-.23-.25-.41-.54-.62-.81a1.61,1.61,0,0,0-1.91-.57c-1.68.44-3.38.79-5.09,1.09a2.83,2.83,0,0,1-3.5-1.82c-.19-.48-.27-1-.46-1.46s-.54-.91-1.16-.7c-1.69.58-3.5.67-5.21,1.1-3.92,1-7.93.79-11.89,1.12a26.68,26.68,0,0,1-5.35-.17c-1.25-.14-2.53-.27-3.8-.36a20.77,20.77,0,0,1-7.49-1.86c-1.13-.43-1.14-.44-1.74.68-.7,1.31-1.34,2.65-2,4a50.58,50.58,0,0,0-2.58,6.24c-1.83,5.31-3.67,10.62-5.34,16-.59,1.92-.66,3.56.79,5.16a24.65,24.65,0,0,0,2.29,2.39,8.26,8.26,0,0,0,4.42,2.12,2,2,0,0,1,1.3.43,2.65,2.65,0,0,1-3.29.35,62.47,62.47,0,0,1-7.29-4.48,64,64,0,0,1-5.69-4.14,2.42,2.42,0,0,1-1-2.78c.58-2.14,1.09-4.29,1.92-6.64a15.46,15.46,0,0,0-2.35,2.55c-.39.45-.77.92-1.17,1.36a1.4,1.4,0,0,1-1,.49c-.75,0-1-.22-.88-1,.24-1.08.57-2.14.88-3.2.2-.69.44-1.37.74-2.29a7.89,7.89,0,0,0-2.11,2.41c-.32.44-.5,1-1.07,1.22Z" />
      <path class="cls-33"
        d="M1336.05,494.31a2,2,0,0,0-1.3-.43,8.26,8.26,0,0,1-4.42-2.12,24.65,24.65,0,0,1-2.29-2.39c-1.45-1.6-1.38-3.24-.79-5.16,1.67-5.36,3.51-10.67,5.34-16a50.58,50.58,0,0,1,2.58-6.24c.68-1.33,1.32-2.67,2-4,.6-1.12.61-1.11,1.74-.68a20.77,20.77,0,0,0,7.49,1.86c1.27.09,2.55.22,3.8.36a26.68,26.68,0,0,0,5.35.17c4-.33,8-.13,11.89-1.12,1.71-.43,3.52-.52,5.21-1.1.62-.21,1,.16,1.16.7s.27,1,.46,1.46a2.83,2.83,0,0,0,3.5,1.82c1.71-.3,3.41-.65,5.09-1.09a1.61,1.61,0,0,1,1.91.57c.21.27.39.56.62.81a1.66,1.66,0,0,0,2,.35,1.49,1.49,0,0,0,.82-1.69c-.33-.81.08-1.57-.07-2.38s.76-1.24,1.51-.95a5,5,0,0,1,.7.34,1.77,1.77,0,0,0,1.82,0c3.5-1.91,7.25-3.41,10.35-6a14,14,0,0,0,3.47-3.72,1.71,1.71,0,0,1,.37-.51c1.24-1.07,1.09-2.23.33-3.7-.35-.68-.8-1.31-1.21-2a.91.91,0,0,1,.08-1.25c2.86-3.14,4.6-6.93,6.33-10.73a1.7,1.7,0,0,1,.55-.84,2.67,2.67,0,0,0,1.28-2.61,13.78,13.78,0,0,1,3.54,3.09,41.67,41.67,0,0,1,6.33,9.56c.66,1.38.76,3,1.83,4.17a42.75,42.75,0,0,1,2.92,3.39,65.6,65.6,0,0,1,4.26,6.21,1.34,1.34,0,0,1,.3.7c0,1,0,2,0,2.94a3.07,3.07,0,0,1-.19,1.12,24.44,24.44,0,0,1-2.55,4.55,16.91,16.91,0,0,1-2.59,2.82,1,1,0,0,0-.21,1.43c.73,1.3,1.42,2.63,2.11,3.95a.72.72,0,0,0,.57.45,2.22,2.22,0,0,1-.15,2.88c-1.07,1.3-2.11,2.63-3.19,3.91a2.78,2.78,0,0,1-1.15,1c-.29-.37-.58-.74-.86-1.12a80.5,80.5,0,0,0-5.27-6.39,66,66,0,0,0-8.23-7.44,12,12,0,0,0-2.59-1.63c-.43-.18-.54.05-.54.42a1.06,1.06,0,0,0,.24.58c.7,1.12,1.35,2.27,2.09,3.36a126.63,126.63,0,0,1,9.21,15.17c.3.62.42,1.4,1.06,1.84.65,1,.48,2.13.56,3.21a2,2,0,0,1-.82,1.67c-1.5,1.13-2.74,2.54-4.28,3.63a36.91,36.91,0,0,1-6.72,3.62c-.52.22-.83.42-.94,1-.21,1.12-.53,2.22-.81,3.33-.46,0-.41-.41-.53-.63-.88-1.66-1.74-3.32-2.6-5-.14-.27-.25-.55-.59-.64.11-.51-.21-.88-.45-1.27-1-1.74-2.08-3.47-3.15-5.2-.13-.23-.17-.59-.6-.58l-.46,1.15c-.4-.19-.44-.6-.55-1-.93-3.22-2.14-6.36-3.3-9.5a19.16,19.16,0,0,0-2.17-4.74,7.73,7.73,0,0,0-3.38-3h0a.25.25,0,0,0-.19-.25,10.85,10.85,0,0,0-2.13-2.36,2.78,2.78,0,0,0-1.73-.83,1.77,1.77,0,0,0,0,.36c.13.41.27.81.4,1.22a36.78,36.78,0,0,1,1.88,10.14c.14,4.43.25,8.86.49,13.29a50.33,50.33,0,0,1-1.13,11.74,2.47,2.47,0,0,1-1.58,2c-3.34,1.31-6.75,2.35-10.42,2.09a1.4,1.4,0,0,1-1.34-.94c-.59-1.32-1.23-2.62-1.87-3.91a7.07,7.07,0,0,0-1.85-2.55,2.85,2.85,0,0,0,.27-1,6.58,6.58,0,0,0-.47-2.48c-.39-1.55-.59-3.16-.94-4.73-.59-2.62-1.75-5.06-2.55-7.62,0-.11-.15-.19-.36-.13s-.22.4-.33.63a63.27,63.27,0,0,0-4.81,13.95,34.38,34.38,0,0,0-1,7.28.91.91,0,0,1-.22.71,6,6,0,0,0-1.91,1.84c-1.27,1.65-3,1.74-4.73,1.34a30.29,30.29,0,0,1-6.64-2.62,2.25,2.25,0,0,1-1.09-2.16,33.75,33.75,0,0,1,.35-5.22c0-.46.14-.92.21-1.38a.46.46,0,0,0,.44-.39c.2-1.31.75-2.52,1.06-3.79.2-.83.49-1.63.69-2.45s0-1-.74-1.34c-.2-.07-.4-.15-.6-.21-.91-.3-.92-.31-1.45.58-1.19,2-2,4.12-3.06,6.16a16.88,16.88,0,0,0-2.14,7,1,1,0,0,1-.41.89,62.47,62.47,0,0,1-1.8-7.91,20.46,20.46,0,0,0-.52-3.33C1336.93,493.31,1336.69,494,1336.05,494.31Zm19.74-24.8c0-.21,0-.43,0-.64,0-.61-.17-1.22-.87-1.4a1.54,1.54,0,0,0-1.69.61,15.14,15.14,0,0,0-3.06,5.39c-.45,1.46-.89,2.93-1.27,4.41a11.63,11.63,0,0,0-.53,2.87,1.8,1.8,0,0,0,.93,1.7,2.37,2.37,0,0,0,2.26-.39,3.8,3.8,0,0,0,.93-1.35,48.34,48.34,0,0,0,2.54-7.47A14.82,14.82,0,0,0,1355.79,469.51Z" />
      <path class="cls-32"
        d="M1370.38,499.21c-1.12-.4-1.41-.3-1.85.75a23.22,23.22,0,0,0-1.42,5.64c-.4.25-.2.67-.28,1s-.23.69-.35,1l-.2.17-.5,0a.3.3,0,0,0-.52,0h-.76a7.13,7.13,0,0,0-2.56-.19,2.26,2.26,0,0,1-2-1.8.91.91,0,0,0,.22-.71,34.38,34.38,0,0,1,1-7.28,63.27,63.27,0,0,1,4.81-13.95c.11-.23.23-.45.33-.63s.33,0,.36.13c.8,2.56,2,5,2.55,7.62.35,1.57.55,3.18.94,4.73a6.58,6.58,0,0,1,.47,2.48A2.85,2.85,0,0,1,1370.38,499.21Z" />
      <path class="cls-32"
        d="M1420.66,483.06c-.64-.44-.76-1.22-1.06-1.84a126.63,126.63,0,0,0-9.21-15.17c-.74-1.09-1.39-2.24-2.09-3.36a1.06,1.06,0,0,1-.24-.58c0-.37.11-.6.54-.42a12,12,0,0,1,2.59,1.63,66,66,0,0,1,8.23,7.44,80.5,80.5,0,0,1,5.27,6.39c.28.38.57.75.86,1.12a42.43,42.43,0,0,1-4.24,3.8C1421,482.33,1420.56,482.52,1420.66,483.06Z" />
      <path class="cls-34"
        d="M1430,470.51a.72.72,0,0,1-.57-.45c-.69-1.32-1.38-2.65-2.11-3.95a1,1,0,0,1,.21-1.43,16.91,16.91,0,0,0,2.59-2.82,24.44,24.44,0,0,0,2.55-4.55,3.07,3.07,0,0,0,.19-1.12c0-1,0-2,0-2.94a17.93,17.93,0,0,1,2.55,6.73,4.39,4.39,0,0,1-.72,3.55,55.75,55.75,0,0,1-4.39,6A1,1,0,0,0,1430,470.51Z" />
      <path class="cls-34"
        d="M1339.9,504.07a1,1,0,0,0,.41-.89,16.88,16.88,0,0,1,2.14-7c1-2,1.87-4.19,3.06-6.16.53-.89.54-.88,1.45-.58.2.06.4.14.6.21.78.3.93.53.74,1.34s-.49,1.62-.69,2.45c-.31,1.27-.86,2.48-1.06,3.79a.46.46,0,0,1-.44.39c0-.18,0-.35,0-.53s-.2-.15-.25,0a75,75,0,0,1-4.06,7.87c-.33.57-.67.56-1.13.28A1.27,1.27,0,0,1,1339.9,504.07Z" />
      <path class="cls-33" d="M1312.84,478.16l.94,0C1313.46,478.47,1313.14,478.67,1312.84,478.16Z" />
      <path class="cls-33" d="M1345.81,497.16c0-.19.13-.25.25,0Z" />
      <path class="cls-35"
        d="M1399.27,487.39c-.37,1.09-.72,2.18-1.1,3.27a3.89,3.89,0,0,1-1.18,1.8c-.62.51-.83.45-1-.33-.34-1.72-.62-3.44-1-5.14-1.26-5.3-2.36-10.65-4.31-15.77-.25-.67-.53-1.33-.8-2a7.73,7.73,0,0,1,3.38,3,19.16,19.16,0,0,1,2.17,4.74c1.16,3.14,2.37,6.28,3.3,9.5C1398.83,486.79,1398.87,487.2,1399.27,487.39Z" />
      <path class="cls-32"
        d="M1355.79,469.51a14.82,14.82,0,0,1-.77,3.73,48.34,48.34,0,0,1-2.54,7.47,3.8,3.8,0,0,1-.93,1.35,2.37,2.37,0,0,1-2.26.39,1.8,1.8,0,0,1-.93-1.7,11.63,11.63,0,0,1,.53-2.87c.38-1.48.82-2.95,1.27-4.41a15.14,15.14,0,0,1,3.06-5.39,1.54,1.54,0,0,1,1.69-.61c.7.18.82.79.87,1.4C1355.8,469.08,1355.79,469.3,1355.79,469.51Z" />
      <path class="cls-35" d="M1389.87,469.21a.22.22,0,0,1-.19-.25A.25.25,0,0,1,1389.87,469.21Z" />
      <path class="cls-36"
        d="M1364.4,507.41c0-2.33.31-4.64.55-7a84.32,84.32,0,0,1,3.67-17.37,49.35,49.35,0,0,1,5.94-12.64,12.92,12.92,0,0,1,4.12-3.76,8.94,8.94,0,0,1,3.84-1.43,5.17,5.17,0,0,1,5.07,2.36,14,14,0,0,1,2,5.42,65.85,65.85,0,0,1,1.2,15.54,50.66,50.66,0,0,1-2.66,12.87,100.79,100.79,0,0,1-7.58,16.82,13.83,13.83,0,0,1-1.81,2.78c0-.21.06-.42.11-.63.87-4.19,1.78-8.37,1.58-12.7a14.77,14.77,0,0,0-1.1-5.22c-1.11-2.58-3.45-4.81-6.61-4.17-1.07.21-2.25.22-3.12,1a15.65,15.65,0,0,0-2,2.1A31.89,31.89,0,0,0,1364.4,507.41Z" />
      <path class="cls-37"
        d="M1364.4,507.41a31.89,31.89,0,0,1,3.15-6,15.65,15.65,0,0,1,2-2.1c.87-.78,2.05-.79,3.12-1,3.16-.64,5.5,1.59,6.61,4.17a14.77,14.77,0,0,1,1.1,5.22c.2,4.33-.71,8.51-1.58,12.7,0,.21-.07.42-.11.63-2.53,4-4.64,8.24-6.84,12.43a57.08,57.08,0,0,1-3.21,5.22,1.46,1.46,0,0,1-2.47.29,5.56,5.56,0,0,1-1.7-3.7,61.39,61.39,0,0,1-.34-6.64c-.06-6.93-.07-13.87.18-20.8C1364.36,507.7,1364.39,507.55,1364.4,507.41Z" />
      <path class="cls-38"
        d="M1407.24,423.49A13.16,13.16,0,0,0,1408,427a29.14,29.14,0,0,0,1,3,2.26,2.26,0,0,1-.41,2.48,61.54,61.54,0,0,1-5,5.49c-1.07,1.05-1.07,1.21-.16,2.46a1.41,1.41,0,0,1-.13,2.14,41.76,41.76,0,0,1-8.41,6.81c-1.47.86-2.9,1.79-4.33,2.7a14.47,14.47,0,0,1-4.67,1.65c-1,.24-1.41-.06-1.94-1-.27-.48-.3-1.08-.75-1.46a2.27,2.27,0,0,0-.4-.16c0,.75,0,1.44,0,2.13,0,.39,0,.77,0,1.16a1.15,1.15,0,0,1-1.6,1.1,3.55,3.55,0,0,1-1.9-1.24,3.27,3.27,0,0,0-3.87-1.28c-2.14.52-4.33.85-6.51,1.17a38.15,38.15,0,0,1-6,.66,4.76,4.76,0,0,1-3.6-1.59,8.26,8.26,0,0,1-1.66-2.55.5.5,0,0,0,.21-.56c-.32-1.66-.63-3.33-.87-5a38.45,38.45,0,0,1-.64-6.06c0-2.22,0-4.43,0-6.65,0-1.48.18-3,.32-4.44.2-2.28.66-4.52.92-6.79.3-2.66.61-5.31,1-7.94a32.29,32.29,0,0,1,6.13-13.86c.84-1.15,1.79-2.23,2.73-3.39a1.57,1.57,0,0,0-.44-.08,36.1,36.1,0,0,1-9.23.56c-2.06-.21-4.14-.29-6.2-.56a63.63,63.63,0,0,1-7-1.16,1.45,1.45,0,0,0-1.09.11c0-.62-.59-.56-1-.68-1.33-.46-10.26-7.56-11.42-9.16a44.43,44.43,0,0,1-6.84-15.72,33.67,33.67,0,0,1-1-9.48,49.37,49.37,0,0,1,4.85-20.2,38.25,38.25,0,0,1,6.44-9.48c2.48-2.63,4.91-5.36,8-7.23a13.76,13.76,0,0,1,7.85-2.34c.78.05,14.25,1,16.26,1.58,2.51.68,5,1.3,7.5,2.09a24.43,24.43,0,0,1,4.64,2.43c3.25,1.87,10.2,6.8,10.57,7.16,1.59,1.54,6.75,6.85,7.67,8,1.45,1.84,7.36,10.37,8.88,12.79a50.55,50.55,0,0,1,2.84,5.15,1,1,0,0,0,1.29.65c1.38-.33,5.31,0,5.56.59a1.54,1.54,0,0,1-.57,1.71c-.65.48-2.49,1.55-2.72,1.67-.49.25-.61.57-.16,1s.85.85,1.32,1.21c2.67,2,5.33,4.1,7.84,6.35.7.62,1.43,1.2,2.11,1.85a4.05,4.05,0,0,1,1.21,2.86,24.52,24.52,0,0,1-3,12.38,1.76,1.76,0,0,0-.16,1.33c.46,1.85,1.71,13.81-1.36,20.8a84.29,84.29,0,0,1-7.52,14.79,3.19,3.19,0,0,1-.39.5c-.81.83-1.54.82-2.25-.1s-1.24-1.73-1.84-2.61a2.92,2.92,0,0,0-1.12-1.19s0-.06,0-.09l-.07,0Zm-25.4,17.19a7.76,7.76,0,0,0,4.61-2.18.94.94,0,0,0,.16-1.18c-.44-1.05-.86-2.13-1.33-3.17a56.47,56.47,0,0,0-6.84-10.89,25.36,25.36,0,0,0-3-3.49c-.56-.5-.73-.46-1.3,0a1.79,1.79,0,0,0-.43,1.89c.2,1.12.47,2.23.71,3.35a51.8,51.8,0,0,0,5.64,14.7A1.59,1.59,0,0,0,1381.84,440.68Zm24.05-62.28c-.49,0-.88,0-1.26,0a1.41,1.41,0,0,0-1.39.94,1.47,1.47,0,0,0,.3,1.66,14.44,14.44,0,0,0,1.3,1c3.51,3,7.61,5,11.63,7.12,1,.52,1.49.27,1.81-.8s.46-2.08.81-3.08a1.2,1.2,0,0,0-.4-1.45,16.16,16.16,0,0,0-6-3.82c-1.54-.49-3.1-.9-4.66-1.34A5.91,5.91,0,0,0,1405.89,378.4Zm-21.52,25.65a2.58,2.58,0,0,0-1.76,1.21c-.37.5.11.87.34,1.24,1.67,2.79,4,5.11,5.94,7.65a.8.8,0,0,0,1.13.23,10.84,10.84,0,0,0,1.31-.79,1.87,1.87,0,0,0,.61-2,3.07,3.07,0,0,0-.74-1.32c-1.49-1.64-3-3.27-4.55-4.84A5.48,5.48,0,0,0,1384.37,404.05Z" />
      <path class="cls-39"
        d="M1343.71,394.79a1.45,1.45,0,0,1,1.09-.11,63.63,63.63,0,0,0,7,1.16c2.06.27,4.14.35,6.2.56a36.1,36.1,0,0,0,9.23-.56,1.57,1.57,0,0,1,.44.08c-.94,1.16-1.89,2.24-2.73,3.39a32.29,32.29,0,0,0-6.13,13.86c-.44,2.63-.75,5.28-1,7.94-.26,2.27-.72,4.51-.92,6.79-.14,1.47-.29,3-.32,4.44,0,2.22,0,4.43,0,6.65a38.45,38.45,0,0,0,.64,6.06c.24,1.68.55,3.35.87,5a.5.5,0,0,1-.21.56l-.18-.34c-.11-.17-.19-.41-.47-.33a.5.5,0,0,0-.39.45c0,.6-.07,1.19-.08,1.79,0,1.3,0,1.35-1.26,1.23a56.94,56.94,0,0,1-9.44-1.51,6.6,6.6,0,0,1-1.89-.77,3.6,3.6,0,0,1-1.45-2.13,39.92,39.92,0,0,1-1.5-8.54,6.16,6.16,0,0,0-.11-.75.44.44,0,0,0-.26-.26.31.31,0,0,0-.37.25c-.17.58-.39,1.14-.5,1.72-.3,1.59-.93,3.1-1.15,4.71-.12.95-.84,1.27-1.78.93a28.49,28.49,0,0,1-8.23-4.85,30.05,30.05,0,0,1-2.4-2.1,1.93,1.93,0,0,1-.6-1.48c.12-5.56,6.28-27.34,7-28.93a20,20,0,0,1,1-2.23A49.32,49.32,0,0,1,1343.71,394.79Z" />
      <path class="cls-39"
        d="M1381.84,440.68a1.59,1.59,0,0,1-1.75-.95,51.8,51.8,0,0,1-5.64-14.7c-.24-1.12-.51-2.23-.71-3.35a1.79,1.79,0,0,1,.43-1.89c.57-.48.74-.52,1.3,0a25.36,25.36,0,0,1,3,3.49,56.47,56.47,0,0,1,6.84,10.89c.47,1,.89,2.12,1.33,3.17a.94.94,0,0,1-.16,1.18A7.76,7.76,0,0,1,1381.84,440.68Z" />
      <path class="cls-39"
        d="M1405.89,378.4a5.91,5.91,0,0,1,2.16.27c1.56.44,3.12.85,4.66,1.34a16.16,16.16,0,0,1,6,3.82,1.2,1.2,0,0,1,.4,1.45c-.35,1-.5,2.06-.81,3.08s-.83,1.32-1.81.8c-4-2.14-8.12-4.16-11.63-7.12a14.44,14.44,0,0,1-1.3-1,1.47,1.47,0,0,1-.3-1.66,1.41,1.41,0,0,1,1.39-.94C1405,378.41,1405.4,378.4,1405.89,378.4Z" />
      <path class="cls-39"
        d="M1384.37,404.05a5.48,5.48,0,0,1,2.28,1.33c1.56,1.57,3.06,3.2,4.55,4.84a3.07,3.07,0,0,1,.74,1.32,1.87,1.87,0,0,1-.61,2,10.84,10.84,0,0,1-1.31.79.8.8,0,0,1-1.13-.23c-2-2.54-4.27-4.86-5.94-7.65-.23-.37-.71-.74-.34-1.24A2.58,2.58,0,0,1,1384.37,404.05Z" />
      <path class="cls-19" d="M1407.24,423.49l-.11-.11.07,0s0,.06,0,.09Z" />
      <path class="cls-25"
        d="M1455,476c0,.11-.14.89-.2,1.26-.56,3.28-.76,6.6-1.18,9.9a1.13,1.13,0,0,0,.65,1.37,28.53,28.53,0,0,0,4.67,1.67c2.83.59,5.64,1.25,8.47,1.88a19.43,19.43,0,0,0,2.13.39,16.78,16.78,0,0,1,4.48,1,5.11,5.11,0,0,0,1.87.37c.6,0,1-.19,1.06-.83s.28-1.25.37-1.88a.64.64,0,0,1,.77-.64c.76,0,1.53,0,2.3,0a2.25,2.25,0,0,0,2.34-1.62,16.8,16.8,0,0,0,.53-1.84c.51-2.42.83-4.87,1.13-7.32.52-4.23,1-8.47,1.15-12.73a83.47,83.47,0,0,0-1.09-15.55c-.44-2.95-1-5.88-1.47-8.82a20.48,20.48,0,0,1-3.65-1.51.85.85,0,0,0-1.21.24,18.84,18.84,0,0,0-1.6,2.16,56.13,56.13,0,0,1-3.68,4.74c-1.34,1.61-2.61,1.65-4.68.6a1.7,1.7,0,0,1-.79-1.38c-.76-3.89-1.56-7.78-2.29-11.67-.93-4.94-1.82-9.89-2.72-14.84-.11-.63-.14-1.27-.28-1.89-.1-.46-.29-1-.81-1.06s-.84.33-1.16.67a2.36,2.36,0,0,0-.49,1.16,43.17,43.17,0,0,1-1.46,5.69c-.33.88-.71,1.74-1,2.61a.83.83,0,0,1-1,.58,7.7,7.7,0,0,1-3.13-1c-3.29-2.07-6.74-3.88-9.9-6.13a79.7,79.7,0,0,1-10.43-8.24,22.11,22.11,0,0,1-1.86-1.76,2.49,2.49,0,0,1-.61-2.46,24.78,24.78,0,0,0,.83-4.78,1.31,1.31,0,0,0-.22-1.17c-.62.53-.7,1.28-1,1.89s-.39.64-.91.21c-3.35-2.85-6.5-5.91-9.61-9-1.11-1.11-2.1-2.35-3.15-3.53a7.38,7.38,0,0,0-.74,1.76,11.46,11.46,0,0,1-1.29,2.63,77.72,77.72,0,0,1-5.9,7.88c-.81.92-1.49,2-2.33,2.87a1.93,1.93,0,0,0-.62,2,15,15,0,0,0,2.8,5.28,63.36,63.36,0,0,0,5.92,6c.78.64.75.69.34,1.61-1.57,3.46-3.21,6.88-5,10.26a18.86,18.86,0,0,0-1.44,3.13,1.6,1.6,0,0,0,.48,1.85,1.57,1.57,0,0,0,1.9-.09,3.25,3.25,0,0,0,.5-.4,47.19,47.19,0,0,0,5.75-6,5.51,5.51,0,0,1,2.06-1.83,9.73,9.73,0,0,1-1.32,2.52c-1.3,2.1-2.65,4.18-4,6.27s-.78,3.33.46,4.75c2.06,2.34,4.42,4.38,6.56,6.63,3.07,3.24,6.8,5.67,10.34,8.34a15.15,15.15,0,0,0,2.72,1.67c2.66,1.26,5.3,2.54,8,3.81.74.35,1.49.65,2.22,1a1.26,1.26,0,0,0,1.52-.2c.77-.67,1.58-1.3,2.38-1.94a18,18,0,0,0,4.45-4.55c.06-.1.15-.19.28-.1s.06.17,0,.24c-.1.32-.21.65-.34,1a139.83,139.83,0,0,0-5.87,18,42.77,42.77,0,0,0-1.12,6.93,8.17,8.17,0,0,0,0,1.4c.08.6.52.78,1,.45a1.55,1.55,0,0,0,.35-.37,23.21,23.21,0,0,1,2.71-2.72,29.49,29.49,0,0,0,5.16-5.82c.18-.27.29-.63.66-.73Z" />
      <path class="cls-27"
        d="M1483,442.6a20.48,20.48,0,0,1-3.65-1.51.85.85,0,0,0-1.21.24,18.84,18.84,0,0,0-1.6,2.16,56.13,56.13,0,0,1-3.68,4.74c-1.34,1.61-2.61,1.65-4.68.6a1.7,1.7,0,0,1-.79-1.38c-.76-3.89-1.56-7.78-2.29-11.67-.93-4.94-1.82-9.89-2.72-14.84-.11-.63-.14-1.27-.28-1.89-.1-.46-.29-1-.81-1.06s-.84.33-1.16.67a2.36,2.36,0,0,0-.49,1.16,43.17,43.17,0,0,1-1.46,5.69c-.33.88-.71,1.74-1,2.61a.83.83,0,0,1-1,.58,7.7,7.7,0,0,1-3.13-1c-3.29-2.07-6.74-3.88-9.9-6.13a79.7,79.7,0,0,1-10.43-8.24,22.11,22.11,0,0,1-1.86-1.76,2.49,2.49,0,0,1-.61-2.46,24.78,24.78,0,0,0,.83-4.78,1.31,1.31,0,0,0-.22-1.17c-.62.53-.7,1.28-1,1.89s-.39.64-.91.21c-3.35-2.85-6.5-5.91-9.61-9-1.11-1.11-2.1-2.35-3.15-3.53a145,145,0,0,0,5.29-21.12,24.29,24.29,0,0,1,.9-4,20.81,20.81,0,0,0,3.3,2.61c2.25,1.31,4.42,2.75,6.59,4.18a17.42,17.42,0,0,0,3.83,2c2.1.71,3.37.34,4.17-1.63.09-.24.21-.47.31-.7.49-1.18.86-2.41,1.23-3.63.19-.62.55-.68,1-.24a1.28,1.28,0,0,1,.31.69,9.18,9.18,0,0,1,.21,2.28c-.09,2-.14,4-.26,6a1.6,1.6,0,0,0,.74,1.61c1.94,1.32,3.82,2.73,5.84,3.92a133.75,133.75,0,0,0,13.45,6.84c.69.31,1.09.63,1.1,1.47s.11,1.53.08,2.3a1.87,1.87,0,0,0,1.29,2c1.43.56,2.82,1.21,4.27,1.73,3.29,1.18,6.72,1.9,10.09,2.79a43.29,43.29,0,0,1,.78,5.43c.56,4.66,1,9.33,1.23,14,.24,4,.4,8.09.42,12.14a45.16,45.16,0,0,0,.66,8.53A4.57,4.57,0,0,1,1483,442.6Z" />
      <path class="cls-25"
        d="M1479.83,401.85c-3.37-.89-6.8-1.61-10.09-2.79-1.45-.52-2.84-1.17-4.27-1.73a1.87,1.87,0,0,1-1.29-2c0-.77-.07-1.54-.08-2.3s-.41-1.16-1.1-1.47a133.75,133.75,0,0,1-13.45-6.84c-2-1.19-3.9-2.6-5.84-3.92a1.6,1.6,0,0,1-.74-1.61c.12-2,.17-4,.26-6a9.18,9.18,0,0,0-.21-2.28,1.28,1.28,0,0,0-.31-.69c-.45-.44-.81-.38-1,.24-.37,1.22-.74,2.45-1.23,3.63-.1.23-.22.46-.31.7-.8,2-2.07,2.34-4.17,1.63a17.42,17.42,0,0,1-3.83-2c-2.17-1.43-4.34-2.87-6.59-4.18a20.81,20.81,0,0,1-3.3-2.61,2.19,2.19,0,0,1,0-.51c1.22-7,2.39-14,3.92-21,.06-.29.17-.57.25-.85,1.41,0,2.83-.06,4.23,0a12.91,12.91,0,0,1,8,3.21,58.64,58.64,0,0,0,6,4.78,74.23,74.23,0,0,0,22.84,10.6,9.93,9.93,0,0,0,3.11.61,101.14,101.14,0,0,1,3.5,10.28,178.3,178.3,0,0,1,5.53,25.34A5,5,0,0,1,1479.83,401.85Z" />
      <path class="cls-24"
        d="M1470.61,364.46a9.93,9.93,0,0,1-3.11-.61,74.23,74.23,0,0,1-22.84-10.6,58.64,58.64,0,0,1-6-4.78,12.91,12.91,0,0,0-8-3.21c-1.4-.09-2.82,0-4.23,0a42.09,42.09,0,0,1,1.86-6.9c.43-1.25.78-2.52,1.2-3.77a65.9,65.9,0,0,1,6-13,8.11,8.11,0,0,1,2.13-2.35c1-.75,2-.79,3.27.14a8.16,8.16,0,0,1,.76.69,111.39,111.39,0,0,1,14.07,15.83,125.92,125.92,0,0,1,14.89,28.31A1.07,1.07,0,0,1,1470.61,364.46Z" />
      <path class="cls-40"
        d="M1357.15,319.15a43.77,43.77,0,0,1,7.73.94,67.28,67.28,0,0,1,9.75,2.57,3.64,3.64,0,0,1,1.06.45,8.14,8.14,0,0,1-.64,2.05c-.42,1.16-.27,1,.46,1.56a31.18,31.18,0,0,1,6.72,6.8,1.79,1.79,0,0,1,.26,2,19,19,0,0,1-4.12,6.42c-.2.21-.39.44-.62.7a3.86,3.86,0,0,0,2,.79,20.07,20.07,0,0,1,9,4.61,1.64,1.64,0,0,1,.62,2,23.1,23.1,0,0,1-3.85,7.87,7.07,7.07,0,0,0-.44.63s0,.08,0,.2a20.94,20.94,0,0,1,3.19,1.41,18.65,18.65,0,0,1,5.67,5.48c.84,1.16.64,1.92-.61,2.62a38.22,38.22,0,0,1-6.53,3.25,24,24,0,0,1,3.5,6.32c.86,2.41.64,4.87.53,7.34,0,.58-.42.65-.84.75a27.25,27.25,0,0,1-9.39.71c-.42-.05-.85-.05-1.29-.07-.07.49.3.72.49,1a21.62,21.62,0,0,1,3.59,9.21c.13,1,.14,1-.85,1.33a26,26,0,0,1-10.73,1.08,2.24,2.24,0,0,0-2.34,1.21c-3.73,6.37-9.53,9.69-16.59,11a22.6,22.6,0,0,1-13.74-1.7c-1.94-.88-4-1.58-5.93-2.38a3.73,3.73,0,0,0-2-.18,19.29,19.29,0,0,0-12.31,7.15,27.28,27.28,0,0,0-4.27,6.64,29.11,29.11,0,0,0-1.81,7.69c-.11.92-.13.95-1,.68a18.39,18.39,0,0,1-7.73-4.55,34.69,34.69,0,0,1-8.66-15.58,41.49,41.49,0,0,1-1.54-7.49.75.75,0,0,1,.83.44c.19.38.45.72.66,1.09.84,1.43,2.2,1.6,3.65,1.53a.77.77,0,0,0,.72-.63,7.44,7.44,0,0,1,1-1.94,42.52,42.52,0,0,1,7.87-9.46,17.33,17.33,0,0,1,6.19-3.68c1.15-.33,2.27-.73,3.42-1a9.86,9.86,0,0,1,2.76-.41c1.32,0,2.64,0,4,0a21.4,21.4,0,0,1,5.18.53,23.9,23.9,0,0,0,6.3.77c1.27-.07,2.56,0,3.84,0a4.73,4.73,0,0,0,1.75-.29c1.55-.58,3.07-1.27,4.66-1.72,3.17-.9,5.84-2.71,8.62-4.35.3-.19.57-.37.6-.76a20.5,20.5,0,0,0,7.77-4.27c6.16-5.65,8.79-12.48,6.84-20.81a27.65,27.65,0,0,0-2.66-6.47c.3-.14.21-.37.19-.64-.14-1.36-.83-2.66-.39-4.1a8.33,8.33,0,0,1,.54-1.42,1.66,1.66,0,0,0,.19-1.35,12.83,12.83,0,0,0-1.3-3c-1.41-2.12-2.84-4.23-4.35-6.27a28.2,28.2,0,0,0-5.07-5.17c-1.75-1.4-3.8-2.38-5.45-3.94-.8-.76-.88-1,.07-1.59,1.32-.85,2.68-1.64,4-2.49C1356.62,319.89,1357.15,319.75,1357.15,319.15Z" />
      <path class="cls-7"
        d="M1371.51,357.4v0a19.45,19.45,0,0,0-3.22-7.89,13.7,13.7,0,0,0-.47-4.71,8.16,8.16,0,0,1,.34-.81,1.66,1.66,0,0,0,.19-1.35,12.83,12.83,0,0,0-1.3-3c-1.41-2.12-2.84-4.23-4.35-6.27a28.2,28.2,0,0,0-5.07-5.17c-1.75-1.4-3.8-2.38-5.45-3.94-.8-.76-.88-1,.07-1.59,1.32-.85,2.68-1.64,4-2.49.37-.24.9-.38.9-1a48.05,48.05,0,0,0-13,.34,23.82,23.82,0,0,0-4,.64,70,70,0,0,0-8,3.09,75.91,75.91,0,0,0-14.2,8.56,16.15,16.15,0,0,0-1.23,1.12,13.18,13.18,0,0,1-1.06.92,20.11,20.11,0,0,0-3.27,3.05c-.87,1-1.69,2-2.55,3a41.41,41.41,0,0,0-5.44,7.88,88.33,88.33,0,0,0-6.36,15,98.46,98.46,0,0,0-4.23,21,113.45,113.45,0,0,0-.12,16.49,10.77,10.77,0,0,0,.24,1.26.75.75,0,0,1,.83.44c.19.38.45.72.66,1.09.84,1.43,2.2,1.6,3.65,1.53a.77.77,0,0,0,.72-.63,7.44,7.44,0,0,1,1-1.94,42.52,42.52,0,0,1,7.87-9.46,17.33,17.33,0,0,1,6.19-3.68c1.15-.33,2.27-.73,3.42-1a9.86,9.86,0,0,1,2.76-.41c1.32,0,2.64,0,4,0a21.4,21.4,0,0,1,5.18.53,23.9,23.9,0,0,0,6.3.77c1.27-.07,2.56,0,3.84,0a4.73,4.73,0,0,0,1.75-.29c1.55-.58,3.07-1.27,4.66-1.72a19.94,19.94,0,0,0,3.93-1.62,43.27,43.27,0,0,0,10.21-5.29C1368.11,374.83,1374.4,366.78,1371.51,357.4Z" />
      <path class="cls-41"
        d="M1355.87,381.68c-1.26.18-2.51.44-3.79.56a17.24,17.24,0,0,1-17.2-9,24.67,24.67,0,0,1-2.82-10.41,21.67,21.67,0,0,1,1-8.72,17.71,17.71,0,0,1,5.49-7.88,22.85,22.85,0,0,1,9.89-5.13,16.51,16.51,0,0,1,15.65,4.5,34.47,34.47,0,0,1,3.75,4.52,27.65,27.65,0,0,1,2.66,6.47c2,8.33-.68,15.16-6.84,20.81A20.5,20.5,0,0,1,1355.87,381.68Zm6.26-20.16a17.74,17.74,0,0,0-.13-1.79c-.55-3.17-2-5.72-5.16-6.93a10.37,10.37,0,0,0-7.14-.14,7.07,7.07,0,0,0-4.5,4,14,14,0,0,0-1.18,6.21c.21,5.38,4.16,7.65,8,8a8.52,8.52,0,0,0,6.74-2.5C1360.72,366.56,1362.41,364.49,1362.13,361.52Z" />
      <path class="cls-24"
        d="M1365.21,361.52c.37,4-1.9,6.76-4.5,9.2a11.42,11.42,0,0,1-9,3.36c-5.18-.43-10.47-3.47-10.75-10.68a18.74,18.74,0,0,1,1.58-8.32,9.49,9.49,0,0,1,6-5.42,13.81,13.81,0,0,1,9.57.18c4.17,1.63,6.17,5,6.91,9.29C1365.16,359.91,1365.15,360.72,1365.21,361.52Z" />
      <path class="cls-42"
        d="M1360.74,357.6a10.44,10.44,0,0,0-2.35-3.36l-13,13.6c2.06,3,5.56,3.7,8.66,3.13a8.54,8.54,0,0,0,5.85-4.18c1.4-2.27,2.49-4.71,1.45-7.5C1361.14,358.72,1361,358.14,1360.74,357.6Z" />
      <path class="cls-25"
        d="M1323.73,296.61c-3.63-.64-7.21-1.42-10.73-2.41a49.73,49.73,0,0,1-10.59-4.1,20.56,20.56,0,0,1-3.78-2.62,2.71,2.71,0,0,0-1.86-.69c-3.32-.09-6.65-.28-10-.26-4,0-7.92-.5-11.9-.5a2.26,2.26,0,0,1-2.07-1.93,2,2,0,0,1,1.51-2.22,34.23,34.23,0,0,1,6-1.21c4.1-.5,8.2-1,12.29-1.65a37.71,37.71,0,0,1,3.82-.38,1.29,1.29,0,0,0,1.07-.53,18.65,18.65,0,0,1,6-4.77,45.53,45.53,0,0,1,12.6-4.47,197.91,197.91,0,0,1,20-3.13c6.15-.68,12.32-1.18,18.5-1.38,4.18-.14,8.37-.14,12.55-.05,3.11.06,6.21.34,9.32.57a4.12,4.12,0,0,0,1.85-.33l6.91-2.72a11.9,11.9,0,0,1,2.82-.77,2.11,2.11,0,0,1,2.22.93,2.14,2.14,0,0,1-.06,2.42c-.3.53-1.09,1-.79,1.59s1.09.26,1.67.35a163.3,163.3,0,0,1,17.71,3.29,39.67,39.67,0,0,1,10.61,4.37,15.72,15.72,0,0,1,3,2.2,4.26,4.26,0,0,0,2.11,1.07,84.49,84.49,0,0,0,10.71,1.76c.81.08,1.62.08,2.43.08a39.13,39.13,0,0,1,7.25.68,4.77,4.77,0,0,1,.75.16,2.09,2.09,0,0,1,1.45,2.17,2,2,0,0,1-2,1.81l-3.45.2c-4.85.28-9.69.8-14.51,1.38a2.58,2.58,0,0,1-.38,0,4.88,4.88,0,0,0-3.52,1.68c-2.07,2.22-4.83,3.47-7.59,4.62a77,77,0,0,1-14.36,4.12,175.31,175.31,0,0,1-19.5,2.64,211.56,211.56,0,0,1-21.35.86c-6.78-.09-13.57-.13-20.32-.85-1.83-.19-3.66-.29-5.48-.54a1.66,1.66,0,0,0-1.29.38c-3.46,2.64-7.2,4.89-10.63,7.57a10.94,10.94,0,0,1-2.52,1.51,2,2,0,0,1-2.46-.4,2.11,2.11,0,0,1-.15-2.61,7.47,7.47,0,0,1,.81-1c1.79-2,3.51-4.07,5.14-6.21A.94.94,0,0,0,1323.73,296.61Zm36.79-22.37c-2.61.09-5.68,0-8.75,0a219.55,219.55,0,0,0-22.49,1.3c-2.41.31-4.82.6-7.21,1a81.62,81.62,0,0,0-8.54,2.19,7,7,0,0,0-3.13,1.65c-.91.92-.81,1.54.37,2q1.5.57,3,1a119.31,119.31,0,0,0,18.55,3.65c7.54,1,15.11,1.46,22.71,1.69a227.9,227.9,0,0,0,29.78-1.18,145.07,145.07,0,0,0,18.18-2.88,69.61,69.61,0,0,0,7.85-2.27c.69-.25,1.29-.6,1.28-1.4s-.63-1.16-1.3-1.41c-.4-.14-.83-.19-1.23-.34a65.81,65.81,0,0,0-11.11-2.91,105,105,0,0,0-10.92-1.34c-6.25-.53-12.52-.72-18.8-.79C1366.19,274.24,1363.59,274.26,1360.52,274.24Z" />
      <path class="cls-25"
        d="M1259.54,288.3a13,13,0,0,1-1.52,0,2.17,2.17,0,0,1-.72-4.11,9.11,9.11,0,0,1,5.49-.65,2,2,0,0,1,1.66,1.74,2.22,2.22,0,0,1-1.09,2.28A6,6,0,0,1,1259.54,288.3Z" />
      <path class="cls-25"
        d="M1318.15,258.78a3.29,3.29,0,0,1-2.3-1.32,1.91,1.91,0,0,1,0-2.16,1.77,1.77,0,0,1,1.89-.76,3.77,3.77,0,0,1,1.8.91,1.86,1.86,0,0,1,.46,2.11A1.92,1.92,0,0,1,1318.15,258.78Z" />
      <path class="cls-25" d="M1395.86,257.33a2,2,0,0,1,2,1.92,1.94,1.94,0,0,1-3.87,0A2,2,0,0,1,1395.86,257.33Z" />
      <path class="cls-25"
        d="M1434.38,304a1.9,1.9,0,0,1-1.78,2,13.15,13.15,0,0,0-1.39.16,1.7,1.7,0,0,1-2-.81,2,2,0,0,1,0-2.19,2.27,2.27,0,0,1,1-.92,3.74,3.74,0,0,1,3.2.2A1.63,1.63,0,0,1,1434.38,304Z" />
      </g>
    </g>
  </g>
</svg>