<svg enable-background="new 0 0 1920 600" viewBox="0 0 1920 600" xmlns="http://www.w3.org/2000/svg" xmlns:xlink="http://www.w3.org/1999/xlink"><clipPath id="a"><path d="m0 0h1920v600h-1920z"/></clipPath><path d="m0 0h1920v600h-1920z" fill="#fadc69"/><path clip-path="url(#a)" d="m391.578 151.81 65.085-9.582 103.402 3.645 61.01-25.985 22.667 2.201 51.388-27.909 65.124-91.689-56.38-29.738-65.091-7.683-7.462 34.198 16.411-20.959 38.512 34.351-38.146 17.756-51.178-12.882-16.714 21.242-36.019-2.705-20.269-6.11-13.115 8.815 15.19-6.927 6.689-3.051 21.848-18.14-19.37-26.476v18.309l-32.639 2.422-15.941-30.871-23.069-38.379-33.236-10.388-64.12 13.589-27.05 27.859 22.041 10.192 19.035-4.077-11.02-7.474h20.037l3.006 33.974-14.026-5.436-22.041.68-67.126 18.346-14.026 42.127 20.037 15.629-8.014 21.743-34.442-11.479-16.404 13.907 3.211 10.788-33.676 5.106 111.143 23.509z" fill="#eefffc"/><path clip-path="url(#a)" d="m1504.795 287.615 39.726-5.849 63.115 2.225 37.239-15.861 13.836 1.344 31.366-17.036 39.75-55.965-34.413-18.151-39.73-4.689-4.555 20.873 10.017-12.793 23.507 20.967-23.284 10.838-31.237-7.862-10.202 12.965-21.986-1.651-12.371-3.729-8.006 5.38 9.272-4.228 4.083-1.862 13.336-11.073-11.824-16.16v11.175l-19.922 1.479-9.73-18.843-14.081-23.426-20.286-6.341-39.138 8.295-16.511 17.004 13.454 6.222 11.619-2.489-6.727-4.562h12.231l1.834 20.737-8.561-3.318-13.454.415-40.972 11.198-8.561 25.714 12.23 9.539-4.892 13.271-21.022-7.006-10.013 8.489 1.96 6.584-20.555 3.117 67.84 14.349z" fill="#eefffc"/><path clip-path="url(#a)" d="m125.435 625.406-67.155-5.074-105.327 11.205-64.183-22.12-22.987 3.889-54.495-24.782-73.139-88.916 55.422-34.447 65.912-12.556 10.096 34.381-18.276-20.215-36.841 37.865 40.239 15.371 51.328-16.857 18.605 20.481 36.586-5.369 20.256-7.706 14.031 8.052-16.014-5.974-7.051-2.631-23.624-16.944 17.865-28.438 1.325 18.697 33.505.111 14.044-32.678 20.78-40.861 33.187-13.013 66.461 9.237 29.639 26.49-21.77 12.003-19.734-2.785 10.713-8.43-20.461 1.45-.611 34.91 13.93-6.566 22.557-.901 69.873 13.876 17.372 42.005-19.33 17.409 9.758 21.623 34.34-14.214 17.757 13.014-2.498 11.249 34.759 2.776-111.795 32.051z" fill="#eefffc"/><path clip-path="url(#a)" d="m1940.456 91.162c1.149-16.39 4.877-33.182 13.361-49.103-9.444-8.13-22.12-14.073-35.852-14.585-3.446-.129-6.956.084-10.497.691-7.609.884-11.517 10.75-15.906 10.596 0 0-19.418-3.223-41.061-3.99-58.679-2.081-119.064 14.344-125.437 58.593-8.447-.202-8.739 6.059-15.565 7.157-12.747-.285-23.658-8.841-40.979-.921-.74.251-1.623.329-2.594.307-2.653-.06-5.94-.863-8.6-.923 0 0-32.872 2.172-62.111 1.529-7.643.934-16.681 3.738-23.566 3.592-.706-.015-30.737-5.986-49.426-6.401-14.393-.32-30.475 2.456-30.717 2.451-7.187-.156-15.154-3.74-23.309-3.922-7.44-.166-8.119 4.146-15.919 3.978-4.751-.102-10.027-1.193-14.676-1.295-7.392-.16-10.742 2.699-10.794 5.94-.048 3.057 2.657 6.166 2.606 9.217-.02 1.274-.52 2.54-1.903 3.787-.914-1.328-2.311-1.682-3.715-1.708-11.043-.207-10.453-.287-10.453-.287-17.77-.332-33.235 7.881-50.194 8.769-13.407-.228-28.79-2.486-43.302-2.737-32.641-.564-44.586 12.165-44.586 20.119 0 12.973 26.62 24.29 43.389 29.661 107.523 29.381 349.397 26.014 626.885 51.235.23-2.081.417-4.16.567-6.237 2.936-41.004-8.899-79.141-5.646-125.513z" fill="#fff" opacity=".2"/><path clip-path="url(#a)" d="m896.703 395.83h.827v31.17h-.827z" fill="#b8c140"/><g fill="#ffb43b"><path clip-path="url(#a)" d="m1727.905 266.359h211.604l-82.802-8.05-6.9-16.1-12.65-11.5c-17.25-1.15-17.25-1.15-17.25-1.15l-20.7-21.85-20.7-13.8c-10.35 5.75-16.1 12.65-16.1 12.65l-3.45 29.901c-12.65 6.9-25.301 2.3-25.301 2.3l-18.4 6.9-14.95 11.5-24.15 8.05z" opacity=".3"/><path clip-path="url(#a)" d="m1063.655 48.52h211.604l-82.802-8.05-6.9-16.1-12.65-11.5c-17.25-1.15-17.25-1.15-17.25-1.15l-20.7-21.85-20.7-13.8c-10.35 5.75-16.1 12.65-16.1 12.65l-3.45 29.901c-12.65 6.9-25.3 2.3-25.3 2.3l-18.4 6.9-14.95 11.5-24.15 8.05z" opacity=".3"/><path clip-path="url(#a)" d="m12.079 99.889h211.604l-82.802-8.05-6.9-16.1-12.65-11.5c-17.25-1.15-17.25-1.15-17.25-1.15l-20.7-21.85-20.7-13.8c-10.35 5.75-16.1 12.65-16.1 12.65l-3.45 29.901c-12.65 6.9-25.301 2.3-25.301 2.3l-18.4 6.9-14.95 11.5-24.15 8.05z" opacity=".3"/><path clip-path="url(#a)" d="m575.362 174.035h285.414l-111.684-10.858-9.307-21.716-17.063-15.512c-23.267-1.551-23.267-1.551-23.267-1.551l-27.921-29.472-27.921-18.614c-13.96 7.756-21.716 17.063-21.716 17.063l-4.654 40.33c-17.063 9.307-34.126 3.102-34.126 3.102l-24.819 9.307-20.165 15.512-32.574 10.858z" opacity=".3"/><path clip-path="url(#a)" d="m1362.885 517.926h531.124l-207.831-20.206-17.319-40.411-31.752-28.865c-43.298-2.887-43.298-2.887-43.298-2.887l-51.958-54.844-51.958-34.639c-25.979 14.433-40.411 31.752-40.411 31.752l-8.66 75.05c-31.752 17.319-63.504 5.773-63.504 5.773l-46.185 17.319-37.525 28.865-60.617 20.206z" opacity=".3"/></g><path clip-path="url(#a)" d="m-18.872 160.596c30.31-9.848 62.136-8.334 93.963-8.334 40.162 0 78.809 6.061 115.939 21.219 31.069 12.881 66.685 31.826 100.025 37.128 37.132 5.306 73.505-.755 110.635-3.028 61.379-3.792 128.821-1.519 189.441 11.367 12.126 3.028 90.175 28.034 57.592 46.221-21.219 11.367-62.139 6.065-84.872.759-28.794-6.82-51.527 4.547-80.323 6.061-13.64.759-26.523-3.787-40.163-3.028-15.913.755-33.34 3.787-49.253 8.334-12.126 3.033-21.219 11.367-32.586 14.399-12.881 4.547-25.006-1.519-37.887-3.792-54.559-9.848-107.605 13.64-162.164 15.913-40.16 1.519-75.776-12.881-115.179-17.427-39.405-4.547-80.325-1.514-118.971 8.334" fill="#fff" opacity=".2"/><path clip-path="url(#a)" d="m-43.874 411.163c56.007-9.848 114.815-8.334 173.623-8.334 74.212 0 145.622 6.061 214.231 21.219 57.41 12.881 123.22 31.826 184.826 37.128 68.613 5.306 135.822-.755 204.431-3.028 113.416-3.792 238.035-1.519 350.049 11.367 22.406 3.028 166.625 28.034 106.418 46.221-39.208 11.367-114.819 6.065-156.825.759-53.205-6.82-95.211 4.547-148.42 6.061-25.204.759-49.008-3.787-74.212-3.028-29.404.755-61.606 3.787-91.01 8.334-22.406 3.033-39.208 11.367-60.211 14.399-23.801 4.547-46.207-1.519-70.007-3.792-100.814-9.848-198.831 13.64-299.646 15.913-74.208 1.519-140.019-12.881-212.828-17.427-72.813-4.547-148.424-1.514-219.834 8.334" fill="#fff" opacity=".2"/><path clip-path="url(#a)" d="m170.801 133.528c8.322 9.907 100.255-1.586 128.786-.794 46.759 1.586 61.025 23.778 108.577 23.778 12.681 0 53.892-9.513 65.78-7.927 11.096 1.586 19.814-.792 30.909 3.963 22.191 7.925 44.383 5.547 67.366 8.716-14.266 16.643-77.669-1.981-97.482-1.186-33.286.792-53.1 18.626-87.18 14.663-26.947-2.378-47.551-8.721-75.29-7.135-27.738 1.586-51.514-4.755-78.461-7.133-24.568-2.378-58.988-5.547-82.764-13.471-21.398-7.133-38.835-14.068-3.962-29.126 22.19-10.305 34.079-6.538 57.855-8.124 13.474-.792 98.67 3.169 57.062 5.944-9.879.66-110.614 2.775-91.196 17.832z" fill="#ffe8b0" fill-opacity=".2"/><path clip-path="url(#a)" d="m1876.724 291.271c-21.239-1.061-7.434-7.432-16.99-20.174-8.495-11.682-27.608-3.186-41.413 0-30.794 5.31-62.65 8.496-94.506 9.557-25.485 1.061-48.847 1.061-73.269-4.246-13.805-3.186-37.167 1.061-48.847-5.31-18.051-8.496 4.248-13.803 16.99-16.989 57.341-13.806 123.177 4.246 180.518-18.053 16.99-5.31 24.422-16.989 14.866-32.917 28.671-12.742 64.775-3.186 94.508-15.928l-52.032-24.424c-18.051-2.125-52.032-1.061-64.775 14.867s10.619 24.421 6.371 36.103c-4.246 10.618-40.351 16.989-49.907 18.053-61.589 7.432-126.362-2.125-185.828 9.557-30.794 6.371-62.65 1.061-93.444 5.307-26.547 2.125-93.445 9.557-109.373 33.981 10.619 7.432 31.856 1.061 44.599 0 18.051-2.125 32.919-1.061 50.97 2.125 33.979 4.246 65.836 8.493 96.631 25.485 29.731 15.928 61.588 1.061 94.506 0 37.165-1.064 75.392-1.064 112.559-1.064 36.103 0 72.207 3.186 107.249 1.064 9.557 0 37.165 0 42.475-10.621 7.43-16.991-24.426-6.373-31.858-6.373z" fill="#ffe8b0" fill-opacity=".2"/><path clip-path="url(#a)" d="m1051.03 401.113c-34.603-1.728-12.111-12.109-27.682-32.87-13.84-19.033-44.981-5.19-67.473 0-50.171 8.652-102.073 13.842-153.976 15.571-41.522 1.728-79.584 1.728-119.375-6.919-22.492-5.19-60.554 1.728-79.584-8.652-29.41-13.842 6.921-22.489 27.682-27.679 93.424-22.494 200.688 6.919 294.111-29.413 27.682-8.652 39.791-27.679 24.22-53.631 46.712-20.761 105.535-5.19 153.978-25.951l-84.774-39.793c-29.41-3.462-84.774-1.728-105.535 24.223s17.302 39.788 10.38 58.821c-6.919 17.299-65.742 27.679-81.313 29.413-100.345 12.109-205.878-3.462-302.764 15.571-50.171 10.38-102.073 1.728-152.245 8.647-43.253 3.462-152.247 15.571-178.198 55.364 17.302 12.109 51.902 1.728 72.663 0 29.41-3.462 53.633-1.728 83.043 3.462 55.361 6.919 107.264 13.837 157.437 41.522 48.44 25.951 100.342 1.728 153.976 0 60.552-1.734 122.834-1.734 183.389-1.734 58.821 0 117.644 5.19 174.736 1.734 15.571 0 60.552 0 69.204-17.304 12.11-27.681-39.792-10.382-51.9-10.382z" fill="#ffe8b0" fill-opacity=".2"/></svg>